<?xml version="1.0" encoding="UTF-8" standalone="no"?>
<!DOCTYPE svg PUBLIC "-//W3C//DTD SVG 1.1//EN"
 "http://www.w3.org/Graphics/SVG/1.1/DTD/svg11.dtd">
<!-- Generated by graphviz version 2.28.0 (20110507.0327)
 -->
<!-- Title: G Pages: 1 -->
<svg width="1384pt" height="1662pt"
 viewBox="0.00 0.00 1384.00 1662.00" xmlns="http://www.w3.org/2000/svg" xmlns:xlink="http://www.w3.org/1999/xlink">
<g id="graph1" class="graph" transform="scale(1 1) rotate(0) translate(4 1658)">
<title>G</title>
<polygon fill="white" stroke="white" points="-4,5 -4,-1658 1381,-1658 1381,5 -4,5"/>
<g id="graph2" class="cluster"><title>cluster_Global</title>
<polyline fill="none" stroke="gray" points="387,-314 1356,-314 "/>
<path fill="none" stroke="gray" d="M1356,-314C1362,-314 1368,-320 1368,-326"/>
<polyline fill="none" stroke="gray" points="1368,-326 1368,-1634 "/>
<path fill="none" stroke="gray" d="M1368,-1634C1368,-1640 1362,-1646 1356,-1646"/>
<polyline fill="none" stroke="gray" points="1356,-1646 387,-1646 "/>
<path fill="none" stroke="gray" d="M387,-1646C381,-1646 375,-1640 375,-1634"/>
<polyline fill="none" stroke="gray" points="375,-1634 375,-326 "/>
<path fill="none" stroke="gray" d="M375,-326C375,-320 381,-314 387,-314"/>
<text text-anchor="middle" x="871.5" y="-1633.2" font-family="Times New Roman,serif" font-size="11.00" fill="gray">Global</text>
</g>
<g id="graph3" class="cluster"><title>cluster_\Pvra</title>
<polyline fill="none" stroke="gray" points="395,-322 1348,-322 "/>
<path fill="none" stroke="gray" d="M1348,-322C1354,-322 1360,-328 1360,-334"/>
<polyline fill="none" stroke="gray" points="1360,-334 1360,-1606 "/>
<path fill="none" stroke="gray" d="M1360,-1606C1360,-1612 1354,-1618 1348,-1618"/>
<polyline fill="none" stroke="gray" points="1348,-1618 395,-1618 "/>
<path fill="none" stroke="gray" d="M395,-1618C389,-1618 383,-1612 383,-1606"/>
<polyline fill="none" stroke="gray" points="383,-1606 383,-334 "/>
<path fill="none" stroke="gray" d="M383,-334C383,-328 389,-322 395,-322"/>
<text text-anchor="middle" x="871.5" y="-1605.2" font-family="Times New Roman,serif" font-size="11.00" fill="gray">Pvra</text>
</g>
<g id="graph4" class="cluster"><title>cluster_\Pvra\Analysers</title>
<polyline fill="none" stroke="gray" points="838,-1302 1311,-1302 "/>
<path fill="none" stroke="gray" d="M1311,-1302C1317,-1302 1323,-1308 1323,-1314"/>
<polyline fill="none" stroke="gray" points="1323,-1314 1323,-1578 "/>
<path fill="none" stroke="gray" d="M1323,-1578C1323,-1584 1317,-1590 1311,-1590"/>
<polyline fill="none" stroke="gray" points="1311,-1590 838,-1590 "/>
<path fill="none" stroke="gray" d="M838,-1590C832,-1590 826,-1584 826,-1578"/>
<polyline fill="none" stroke="gray" points="826,-1578 826,-1314 "/>
<path fill="none" stroke="gray" d="M826,-1314C826,-1308 832,-1302 838,-1302"/>
<text text-anchor="middle" x="1074.5" y="-1577.2" font-family="Times New Roman,serif" font-size="11.00" fill="gray">Analysers</text>
</g>
<g id="graph5" class="cluster"><title>cluster_\Pvra\Console</title>
<polyline fill="none" stroke="gray" points="858,-906 1340,-906 "/>
<path fill="none" stroke="gray" d="M1340,-906C1346,-906 1352,-912 1352,-918"/>
<polyline fill="none" stroke="gray" points="1352,-918 1352,-1282 "/>
<path fill="none" stroke="gray" d="M1352,-1282C1352,-1288 1346,-1294 1340,-1294"/>
<polyline fill="none" stroke="gray" points="1340,-1294 858,-1294 "/>
<path fill="none" stroke="gray" d="M858,-1294C852,-1294 846,-1288 846,-1282"/>
<polyline fill="none" stroke="gray" points="846,-1282 846,-918 "/>
<path fill="none" stroke="gray" d="M846,-918C846,-912 852,-906 858,-906"/>
<text text-anchor="middle" x="1099" y="-1281.2" font-family="Times New Roman,serif" font-size="11.00" fill="gray">Console</text>
</g>
<g id="graph6" class="cluster"><title>cluster_\Pvra\Console\Commands</title>
<polyline fill="none" stroke="gray" points="866,-960 1332,-960 "/>
<path fill="none" stroke="gray" d="M1332,-960C1338,-960 1344,-966 1344,-972"/>
<polyline fill="none" stroke="gray" points="1344,-972 1344,-1254 "/>
<path fill="none" stroke="gray" d="M1344,-1254C1344,-1260 1338,-1266 1332,-1266"/>
<polyline fill="none" stroke="gray" points="1332,-1266 866,-1266 "/>
<path fill="none" stroke="gray" d="M866,-1266C860,-1266 854,-1260 854,-1254"/>
<polyline fill="none" stroke="gray" points="854,-1254 854,-972 "/>
<path fill="none" stroke="gray" d="M854,-972C854,-966 860,-960 866,-960"/>
<text text-anchor="middle" x="1099" y="-1253.2" font-family="Times New Roman,serif" font-size="11.00" fill="gray">Commands</text>
</g>
<g id="graph7" class="cluster"><title>cluster_\Pvra\Console\Commands\Debug</title>
<polyline fill="none" stroke="gray" points="1180,-1014 1324,-1014 "/>
<path fill="none" stroke="gray" d="M1324,-1014C1330,-1014 1336,-1020 1336,-1026"/>
<polyline fill="none" stroke="gray" points="1336,-1026 1336,-1128 "/>
<path fill="none" stroke="gray" d="M1336,-1128C1336,-1134 1330,-1140 1324,-1140"/>
<polyline fill="none" stroke="gray" points="1324,-1140 1180,-1140 "/>
<path fill="none" stroke="gray" d="M1180,-1140C1174,-1140 1168,-1134 1168,-1128"/>
<polyline fill="none" stroke="gray" points="1168,-1128 1168,-1026 "/>
<path fill="none" stroke="gray" d="M1168,-1026C1168,-1020 1174,-1014 1180,-1014"/>
<text text-anchor="middle" x="1252" y="-1127.2" font-family="Times New Roman,serif" font-size="11.00" fill="gray">Debug</text>
</g>
<g id="graph8" class="cluster"><title>cluster_\Pvra\Lexer</title>
<polyline fill="none" stroke="gray" points="1173,-726 1331,-726 "/>
<path fill="none" stroke="gray" d="M1331,-726C1337,-726 1343,-732 1343,-738"/>
<polyline fill="none" stroke="gray" points="1343,-738 1343,-786 "/>
<path fill="none" stroke="gray" d="M1343,-786C1343,-792 1337,-798 1331,-798"/>
<polyline fill="none" stroke="gray" points="1331,-798 1173,-798 "/>
<path fill="none" stroke="gray" d="M1173,-798C1167,-798 1161,-792 1161,-786"/>
<polyline fill="none" stroke="gray" points="1161,-786 1161,-738 "/>
<path fill="none" stroke="gray" d="M1161,-738C1161,-732 1167,-726 1173,-726"/>
<text text-anchor="middle" x="1252" y="-785.2" font-family="Times New Roman,serif" font-size="11.00" fill="gray">Lexer</text>
</g>
<g id="graph9" class="cluster"><title>cluster_\Pvra\Result</title>
<polyline fill="none" stroke="gray" points="1166,-330 1338,-330 "/>
<path fill="none" stroke="gray" d="M1338,-330C1344,-330 1350,-336 1350,-342"/>
<polyline fill="none" stroke="gray" points="1350,-342 1350,-660 "/>
<path fill="none" stroke="gray" d="M1350,-660C1350,-666 1344,-672 1338,-672"/>
<polyline fill="none" stroke="gray" points="1338,-672 1166,-672 "/>
<path fill="none" stroke="gray" d="M1166,-672C1160,-672 1154,-666 1154,-660"/>
<polyline fill="none" stroke="gray" points="1154,-660 1154,-342 "/>
<path fill="none" stroke="gray" d="M1154,-342C1154,-336 1160,-330 1166,-330"/>
<text text-anchor="middle" x="1252" y="-659.2" font-family="Times New Roman,serif" font-size="11.00" fill="gray">Result</text>
</g>
<!-- \\Pvra\\Analysers\\LanguageFeatureAnalyser -->
<g id="node4" class="node"><title>\\Pvra\\Analysers\\LanguageFeatureAnalyser</title>
<polygon fill="none" stroke="black" points="1007.5,-1454 834.5,-1454 834.5,-1418 1007.5,-1418 1007.5,-1454"/>
<text text-anchor="start" x="887" y="-1439.7" font-family="Courier,monospace" font-size="11.00">«abstract»</text>
<text text-anchor="start" x="843" y="-1428.7" font-family="Courier,monospace" font-size="11.00">LanguageFeatureAnalyser</text>
</g>
<!-- \\Pvra\\AnalyserAwareInterface -->
<g id="node33" class="node"><title>\\Pvra\\AnalyserAwareInterface</title>
<polygon fill="none" stroke="black" points="556.5,-1476 391.5,-1476 391.5,-1440 556.5,-1440 556.5,-1476"/>
<text text-anchor="middle" x="474" y="-1455.2" font-family="Courier,monospace" font-size="11.00">AnalyserAwareInterface</text>
</g>
<!-- \\Pvra\\Analysers\\LanguageFeatureAnalyser&#45;&gt;\\Pvra\\AnalyserAwareInterface -->
<g id="edge12" class="edge"><title>\\Pvra\\Analysers\\LanguageFeatureAnalyser&#45;&gt;\\Pvra\\AnalyserAwareInterface</title>
<path fill="none" stroke="black" stroke-dasharray="1,5" d="M834.463,-1440.23C757.749,-1444.02 645.484,-1449.57 566.885,-1453.46"/>
<polygon fill="none" stroke="black" points="566.323,-1449.98 556.508,-1453.97 566.668,-1456.97 566.323,-1449.98"/>
</g>
<!-- \\PhpParser\\NodeVisitorAbstract -->
<g id="node35" class="node"><title>\\PhpParser\\NodeVisitorAbstract</title>
<ellipse fill="none" stroke="black" cx="474" cy="-288" rx="128.877" ry="18"/>
<text text-anchor="middle" x="474" y="-284.3" font-family="Times New Roman,serif" font-size="14.00" fill="gray">\PhpParser\NodeVisitorAbstract</text>
</g>
<!-- \\Pvra\\Analysers\\LanguageFeatureAnalyser&#45;&gt;\\PhpParser\\NodeVisitorAbstract -->
<g id="edge10" class="edge"><title>\\Pvra\\Analysers\\LanguageFeatureAnalyser&#45;&gt;\\PhpParser\\NodeVisitorAbstract</title>
<path fill="none" stroke="black" d="M891.583,-1417.83C852.29,-1390.92 782.739,-1336.42 752,-1270 662.895,-1077.46 824.692,-473.165 680,-318 657.88,-294.279 625.909,-283.547 593.771,-279.596"/>
<polygon fill="none" stroke="black" points="594.105,-276.112 583.802,-278.581 593.396,-283.076 594.105,-276.112"/>
</g>
<!-- \\Pvra\\Analysers\\LibraryAdditions -->
<g id="node5" class="node"><title>\\Pvra\\Analysers\\LibraryAdditions</title>
<polygon fill="none" stroke="black" points="1314.5,-1562 1189.5,-1562 1189.5,-1526 1314.5,-1526 1314.5,-1562"/>
<text text-anchor="middle" x="1252" y="-1541.2" font-family="Courier,monospace" font-size="11.00">LibraryAdditions</text>
</g>
<!-- \\Pvra\\Analysers\\LibraryAdditions&#45;&gt;\\Pvra\\Analysers\\LanguageFeatureAnalyser -->
<g id="edge14" class="edge"><title>\\Pvra\\Analysers\\LibraryAdditions&#45;&gt;\\Pvra\\Analysers\\LanguageFeatureAnalyser</title>
<path fill="none" stroke="black" d="M1189.49,-1531.62C1177.31,-1527.87 1164.92,-1523.08 1154,-1517 1120.2,-1498.18 1125.04,-1474.39 1090,-1458 1067.75,-1447.59 1042.15,-1441.64 1017.74,-1438.33"/>
<polygon fill="none" stroke="black" points="1018.08,-1434.85 1007.73,-1437.11 1017.23,-1441.8 1018.08,-1434.85"/>
</g>
<!-- \\Pvra\\Analysers\\LibraryAdditions&#45;&gt;\\Pvra\\AnalyserAwareInterface -->
<g id="edge16" class="edge"><title>\\Pvra\\Analysers\\LibraryAdditions&#45;&gt;\\Pvra\\AnalyserAwareInterface</title>
<path fill="none" stroke="black" stroke-dasharray="1,5" d="M1189.35,-1529.29C1109.1,-1510.65 973.104,-1480.93 922,-1481"/>
</g>
<!-- \\Pvra\\Analysers\\Php53Features -->
<g id="node6" class="node"><title>\\Pvra\\Analysers\\Php53Features</title>
<polygon fill="none" stroke="black" points="1304,-1346 1200,-1346 1200,-1310 1304,-1310 1304,-1346"/>
<text text-anchor="middle" x="1252" y="-1325.2" font-family="Courier,monospace" font-size="11.00">Php53Features</text>
</g>
<!-- \\Pvra\\Analysers\\Php53Features&#45;&gt;\\Pvra\\Analysers\\LanguageFeatureAnalyser -->
<g id="edge18" class="edge"><title>\\Pvra\\Analysers\\Php53Features&#45;&gt;\\Pvra\\Analysers\\LanguageFeatureAnalyser</title>
<path fill="none" stroke="black" d="M1199.97,-1341.54C1185.09,-1345.67 1168.85,-1350.35 1154,-1355 1094.52,-1373.64 1027.36,-1397.39 980.668,-1414.34"/>
<polygon fill="none" stroke="black" points="979.224,-1411.14 971.024,-1417.85 981.618,-1417.72 979.224,-1411.14"/>
</g>
<!-- \\Pvra\\Analysers\\Php54Features -->
<g id="node7" class="node"><title>\\Pvra\\Analysers\\Php54Features</title>
<polygon fill="none" stroke="black" points="1304,-1400 1200,-1400 1200,-1364 1304,-1364 1304,-1400"/>
<text text-anchor="middle" x="1252" y="-1379.2" font-family="Courier,monospace" font-size="11.00">Php54Features</text>
</g>
<!-- \\Pvra\\Analysers\\Php54Features&#45;&gt;\\Pvra\\Analysers\\LanguageFeatureAnalyser -->
<g id="edge20" class="edge"><title>\\Pvra\\Analysers\\Php54Features&#45;&gt;\\Pvra\\Analysers\\LanguageFeatureAnalyser</title>
<path fill="none" stroke="black" d="M1199.95,-1390.38C1151.5,-1398.33 1077.44,-1410.49 1017.94,-1420.25"/>
<polygon fill="none" stroke="black" points="1017.07,-1416.85 1007.77,-1421.92 1018.21,-1423.76 1017.07,-1416.85"/>
</g>
<!-- \\Pvra\\Analysers\\Php54Features&#45;&gt;\\Pvra\\AnalyserAwareInterface -->
<g id="edge22" class="edge"><title>\\Pvra\\Analysers\\Php54Features&#45;&gt;\\Pvra\\AnalyserAwareInterface</title>
<path fill="none" stroke="black" stroke-dasharray="1,5" d="M920,-1481C797.651,-1481.18 656.633,-1472.36 566.709,-1465.59"/>
<polygon fill="none" stroke="black" points="566.781,-1462.09 556.544,-1464.82 566.25,-1469.06 566.781,-1462.09"/>
<path fill="none" stroke="black" stroke-dasharray="1,5" d="M1199.83,-1391.86C1184.57,-1395.95 1168.14,-1401.53 1154,-1409 1121.1,-1426.39 1124.22,-1448.38 1090,-1463 1020.95,-1492.51 997.094,-1480.89 922,-1481"/>
</g>
<!-- \\Pvra\\Analysers\\Php55Features -->
<g id="node8" class="node"><title>\\Pvra\\Analysers\\Php55Features</title>
<polygon fill="none" stroke="black" points="1304,-1454 1200,-1454 1200,-1418 1304,-1418 1304,-1454"/>
<text text-anchor="middle" x="1252" y="-1433.2" font-family="Courier,monospace" font-size="11.00">Php55Features</text>
</g>
<!-- \\Pvra\\Analysers\\Php55Features&#45;&gt;\\Pvra\\Analysers\\LanguageFeatureAnalyser -->
<g id="edge24" class="edge"><title>\\Pvra\\Analysers\\Php55Features&#45;&gt;\\Pvra\\Analysers\\LanguageFeatureAnalyser</title>
<path fill="none" stroke="black" d="M1199.95,-1436C1151.5,-1436 1077.44,-1436 1017.94,-1436"/>
<polygon fill="none" stroke="black" points="1017.77,-1432.5 1007.77,-1436 1017.77,-1439.5 1017.77,-1432.5"/>
</g>
<!-- \\Pvra\\Analysers\\Php55Features&#45;&gt;\\Pvra\\AnalyserAwareInterface -->
<g id="edge26" class="edge"><title>\\Pvra\\Analysers\\Php55Features&#45;&gt;\\Pvra\\AnalyserAwareInterface</title>
<path fill="none" stroke="black" stroke-dasharray="1,5" d="M1199.73,-1447.37C1135.26,-1460.65 1021.01,-1480.86 922,-1481"/>
</g>
<!-- \\Pvra\\Analysers\\Php56Features -->
<g id="node9" class="node"><title>\\Pvra\\Analysers\\Php56Features</title>
<polygon fill="none" stroke="black" points="1304,-1508 1200,-1508 1200,-1472 1304,-1472 1304,-1508"/>
<text text-anchor="middle" x="1252" y="-1487.2" font-family="Courier,monospace" font-size="11.00">Php56Features</text>
</g>
<!-- \\Pvra\\Analysers\\Php56Features&#45;&gt;\\Pvra\\Analysers\\LanguageFeatureAnalyser -->
<g id="edge28" class="edge"><title>\\Pvra\\Analysers\\Php56Features&#45;&gt;\\Pvra\\Analysers\\LanguageFeatureAnalyser</title>
<path fill="none" stroke="black" d="M1199.68,-1478.9C1168.13,-1472.3 1126.84,-1464.07 1090,-1458 1066.64,-1454.15 1041.35,-1450.55 1017.67,-1447.42"/>
<polygon fill="none" stroke="black" points="1018,-1443.93 1007.63,-1446.1 1017.09,-1450.87 1018,-1443.93"/>
</g>
<!-- \\Pvra\\Analysers\\Php56Features&#45;&gt;\\Pvra\\AnalyserAwareInterface -->
<g id="edge30" class="edge"><title>\\Pvra\\Analysers\\Php56Features&#45;&gt;\\Pvra\\AnalyserAwareInterface</title>
<path fill="none" stroke="black" stroke-dasharray="1,5" d="M1199.72,-1487.68C1135.01,-1484.97 1020.28,-1480.86 922,-1481"/>
</g>
<!-- \\Pvra\\Console\\Commands\\Debug\\DumpAstCommand -->
<g id="node13" class="node"><title>\\Pvra\\Console\\Commands\\Debug\\DumpAstCommand</title>
<polygon fill="none" stroke="black" points="1307.5,-1112 1196.5,-1112 1196.5,-1076 1307.5,-1076 1307.5,-1112"/>
<text text-anchor="middle" x="1252" y="-1091.2" font-family="Courier,monospace" font-size="11.00">DumpAstCommand</text>
</g>
<!-- \\Symfony\\Component\\Console\\Command\\Command -->
<g id="node53" class="node"><title>\\Symfony\\Component\\Console\\Command\\Command</title>
<ellipse fill="none" stroke="black" cx="474" cy="-234" rx="205.264" ry="18"/>
<text text-anchor="middle" x="474" y="-230.3" font-family="Times New Roman,serif" font-size="14.00" fill="gray">\Symfony\Component\Console\Command\Command</text>
</g>
<!-- \\Pvra\\Console\\Commands\\Debug\\DumpAstCommand&#45;&gt;\\Symfony\\Component\\Console\\Command\\Command -->
<g id="edge40" class="edge"><title>\\Pvra\\Console\\Commands\\Debug\\DumpAstCommand&#45;&gt;\\Symfony\\Component\\Console\\Command\\Command</title>
<path fill="none" stroke="black" d="M1196.42,-1088.8C1181.02,-1084.89 1165.38,-1078.24 1154,-1067 1081.84,-995.758 1168.54,-912.141 1090,-848 1060.98,-824.304 949.574,-859.36 922,-834"/>
</g>
<!-- \\Pvra\\Console\\Commands\\Debug\\DumpTokenListCommand -->
<g id="node14" class="node"><title>\\Pvra\\Console\\Commands\\Debug\\DumpTokenListCommand</title>
<polygon fill="none" stroke="black" points="1328,-1058 1176,-1058 1176,-1022 1328,-1022 1328,-1058"/>
<text text-anchor="middle" x="1252" y="-1037.2" font-family="Courier,monospace" font-size="11.00">DumpTokenListCommand</text>
</g>
<!-- \\Pvra\\Console\\Commands\\Debug\\DumpTokenListCommand&#45;&gt;\\Symfony\\Component\\Console\\Command\\Command -->
<g id="edge42" class="edge"><title>\\Pvra\\Console\\Commands\\Debug\\DumpTokenListCommand&#45;&gt;\\Symfony\\Component\\Console\\Command\\Command</title>
<path fill="none" stroke="black" d="M1175.81,-1031.01C1167.87,-1027.8 1160.38,-1023.56 1154,-1018 1093.14,-964.956 1154.42,-896.661 1090,-848 1060.11,-825.419 949.574,-859.36 922,-834"/>
</g>
<!-- \\Pvra\\Console\\Commands\\CheckUpdateCommand -->
<g id="node15" class="node"><title>\\Pvra\\Console\\Commands\\CheckUpdateCommand</title>
<polygon fill="none" stroke="black" points="1321,-1004 1183,-1004 1183,-968 1321,-968 1321,-1004"/>
<text text-anchor="middle" x="1252" y="-983.2" font-family="Courier,monospace" font-size="11.00">CheckUpdateCommand</text>
</g>
<!-- \\Pvra\\Console\\Commands\\CheckUpdateCommand&#45;&gt;\\Symfony\\Component\\Console\\Command\\Command -->
<g id="edge38" class="edge"><title>\\Pvra\\Console\\Commands\\CheckUpdateCommand&#45;&gt;\\Symfony\\Component\\Console\\Command\\Command</title>
<path fill="none" stroke="black" d="M920,-834C716.778,-647.094 899.374,-428.654 680,-261 673.235,-255.83 665.964,-251.386 658.338,-247.578"/>
<polygon fill="none" stroke="black" points="659.781,-244.389 649.233,-243.395 656.858,-250.75 659.781,-244.389"/>
<path fill="none" stroke="black" d="M1182.8,-978.253C1172.49,-974.969 1162.49,-970.383 1154,-964 1106.94,-928.608 1139.42,-880.016 1090,-848 1058.56,-827.63 949.574,-859.36 922,-834"/>
</g>
<!-- \\Pvra\\Console\\Commands\\DirCommand -->
<g id="node16" class="node"><title>\\Pvra\\Console\\Commands\\DirCommand</title>
<polygon fill="none" stroke="black" points="1294,-1238 1210,-1238 1210,-1202 1294,-1202 1294,-1238"/>
<text text-anchor="middle" x="1252" y="-1217.2" font-family="Courier,monospace" font-size="11.00">DirCommand</text>
</g>
<!-- \\Pvra\\Console\\Commands\\PvraBaseCommand -->
<g id="node18" class="node"><title>\\Pvra\\Console\\Commands\\PvraBaseCommand</title>
<polygon fill="none" stroke="black" points="980,-1184 862,-1184 862,-1148 980,-1148 980,-1184"/>
<text text-anchor="middle" x="921" y="-1163.2" font-family="Courier,monospace" font-size="11.00">PvraBaseCommand</text>
</g>
<!-- \\Pvra\\Console\\Commands\\DirCommand&#45;&gt;\\Pvra\\Console\\Commands\\PvraBaseCommand -->
<g id="edge44" class="edge"><title>\\Pvra\\Console\\Commands\\DirCommand&#45;&gt;\\Pvra\\Console\\Commands\\PvraBaseCommand</title>
<path fill="none" stroke="black" d="M1210,-1213.27C1154.95,-1204.23 1056.41,-1188.06 990.122,-1177.18"/>
<polygon fill="none" stroke="black" points="990.614,-1173.72 980.179,-1175.55 989.48,-1180.62 990.614,-1173.72"/>
</g>
<!-- \\Pvra\\Console\\Commands\\FileCommand -->
<g id="node17" class="node"><title>\\Pvra\\Console\\Commands\\FileCommand</title>
<polygon fill="none" stroke="black" points="1297.5,-1184 1206.5,-1184 1206.5,-1148 1297.5,-1148 1297.5,-1184"/>
<text text-anchor="middle" x="1252" y="-1163.2" font-family="Courier,monospace" font-size="11.00">FileCommand</text>
</g>
<!-- \\Pvra\\Console\\Commands\\FileCommand&#45;&gt;\\Pvra\\Console\\Commands\\PvraBaseCommand -->
<g id="edge46" class="edge"><title>\\Pvra\\Console\\Commands\\FileCommand&#45;&gt;\\Pvra\\Console\\Commands\\PvraBaseCommand</title>
<path fill="none" stroke="black" d="M1206.29,-1166C1150.67,-1166 1055.15,-1166 990.331,-1166"/>
<polygon fill="none" stroke="black" points="990.203,-1162.5 980.203,-1166 990.203,-1169.5 990.203,-1162.5"/>
</g>
<!-- \\Pvra\\Console\\Commands\\PvraBaseCommand&#45;&gt;\\Symfony\\Component\\Console\\Command\\Command -->
<g id="edge48" class="edge"><title>\\Pvra\\Console\\Commands\\PvraBaseCommand&#45;&gt;\\Symfony\\Component\\Console\\Command\\Command</title>
<path fill="none" stroke="black" d="M861.645,-1175.15C824.943,-1177.34 779.487,-1172.86 752,-1144 616.231,-1001.43 815.716,-403.619 680,-261 675.372,-256.136 670.325,-251.839 664.947,-248.052"/>
<polygon fill="none" stroke="black" points="666.551,-244.924 656.234,-242.511 662.795,-250.831 666.551,-244.924"/>
</g>
<!-- \\Pvra\\Console\\Application -->
<g id="node19" class="node"><title>\\Pvra\\Console\\Application</title>
<polygon fill="none" stroke="black" points="1297.5,-950 1206.5,-950 1206.5,-914 1297.5,-914 1297.5,-950"/>
<text text-anchor="middle" x="1252" y="-929.2" font-family="Courier,monospace" font-size="11.00">Application</text>
</g>
<!-- \\Symfony\\Component\\Console\\Application -->
<g id="node51" class="node"><title>\\Symfony\\Component\\Console\\Application</title>
<ellipse fill="none" stroke="black" cx="921" cy="-288" rx="168.97" ry="18"/>
<text text-anchor="middle" x="921" y="-284.3" font-family="Times New Roman,serif" font-size="14.00" fill="gray">\Symfony\Component\Console\Application</text>
</g>
<!-- \\Pvra\\Console\\Application&#45;&gt;\\Symfony\\Component\\Console\\Application -->
<g id="edge36" class="edge"><title>\\Pvra\\Console\\Application&#45;&gt;\\Symfony\\Component\\Console\\Application</title>
<path fill="none" stroke="black" d="M1206.29,-930.894C1188.22,-928.322 1168.3,-922.502 1154,-910 1058.48,-826.492 955.661,-426.557 928.749,-316.237"/>
<polygon fill="none" stroke="black" points="932.074,-315.096 926.316,-306.202 925.271,-316.745 932.074,-315.096"/>
</g>
<!-- \\Pvra\\Lexer\\ExtendedEmulativeLexer -->
<g id="node21" class="node"><title>\\Pvra\\Lexer\\ExtendedEmulativeLexer</title>
<polygon fill="none" stroke="black" points="1334.5,-770 1169.5,-770 1169.5,-734 1334.5,-734 1334.5,-770"/>
<text text-anchor="middle" x="1252" y="-749.2" font-family="Courier,monospace" font-size="11.00">ExtendedEmulativeLexer</text>
</g>
<!-- \\PhpParser\\Lexer\\Emulative -->
<g id="node61" class="node"><title>\\PhpParser\\Lexer\\Emulative</title>
<ellipse fill="none" stroke="black" cx="921" cy="-234" rx="111.28" ry="18"/>
<text text-anchor="middle" x="921" y="-230.3" font-family="Times New Roman,serif" font-size="14.00" fill="gray">\PhpParser\Lexer\Emulative</text>
</g>
<!-- \\Pvra\\Lexer\\ExtendedEmulativeLexer&#45;&gt;\\PhpParser\\Lexer\\Emulative -->
<g id="edge52" class="edge"><title>\\Pvra\\Lexer\\ExtendedEmulativeLexer&#45;&gt;\\PhpParser\\Lexer\\Emulative</title>
<path fill="none" stroke="black" d="M1169.42,-741.836C1163.69,-738.725 1158.43,-734.838 1154,-730 1011.88,-574.884 1236.98,-411.513 1090,-261 1076.64,-247.322 1059.3,-238.834 1040.85,-233.786"/>
<polygon fill="none" stroke="black" points="1041.65,-230.379 1031.11,-231.451 1040.02,-237.186 1041.65,-230.379"/>
</g>
<!-- \\Pvra\\Result\\Collection -->
<g id="node23" class="node"><title>\\Pvra\\Result\\Collection</title>
<polygon fill="none" stroke="black" points="1294,-644 1210,-644 1210,-608 1294,-608 1294,-644"/>
<text text-anchor="middle" x="1252" y="-623.2" font-family="Courier,monospace" font-size="11.00">Collection</text>
</g>
<!-- \\IteratorAggregate -->
<g id="node47" class="node"><title>\\IteratorAggregate</title>
<ellipse fill="none" stroke="black" cx="921" cy="-180" rx="76.0865" ry="18"/>
<text text-anchor="middle" x="921" y="-176.3" font-family="Times New Roman,serif" font-size="14.00" fill="gray">\IteratorAggregate</text>
</g>
<!-- \\Pvra\\Result\\Collection&#45;&gt;\\IteratorAggregate -->
<g id="edge56" class="edge"><title>\\Pvra\\Result\\Collection&#45;&gt;\\IteratorAggregate</title>
<path fill="none" stroke="black" stroke-dasharray="1,5" d="M1209.81,-624.464C1190.19,-621.532 1168,-614.623 1154,-599 1036.2,-467.523 1214.98,-331.67 1090,-207 1067.26,-184.316 1033.53,-176.03 1002.25,-174.004"/>
<polygon fill="none" stroke="black" points="1002.34,-170.505 992.193,-173.556 1002.03,-177.498 1002.34,-170.505"/>
</g>
<!-- \\Countable -->
<g id="node49" class="node"><title>\\Countable</title>
<ellipse fill="none" stroke="black" cx="921" cy="-126" rx="50.0912" ry="18"/>
<text text-anchor="middle" x="921" y="-122.3" font-family="Times New Roman,serif" font-size="14.00" fill="gray">\Countable</text>
</g>
<!-- \\Pvra\\Result\\Collection&#45;&gt;\\Countable -->
<g id="edge54" class="edge"><title>\\Pvra\\Result\\Collection&#45;&gt;\\Countable</title>
<path fill="none" stroke="black" stroke-dasharray="1,5" d="M1209.68,-624.578C1190.03,-621.675 1167.85,-614.758 1154,-599 1021.82,-448.571 1230.4,-295.786 1090,-153 1061.51,-124.024 1015.12,-118.393 978.306,-119.384"/>
<polygon fill="none" stroke="black" points="978.035,-115.892 968.198,-119.825 978.341,-122.886 978.035,-115.892"/>
</g>
<!-- \\JsonSerializable -->
<g id="node65" class="node"><title>\\JsonSerializable</title>
<ellipse fill="none" stroke="black" cx="921" cy="-72" rx="70.3881" ry="18"/>
<text text-anchor="middle" x="921" y="-68.3" font-family="Times New Roman,serif" font-size="14.00" fill="gray">\JsonSerializable</text>
</g>
<!-- \\Pvra\\Result\\Collection&#45;&gt;\\JsonSerializable -->
<g id="edge58" class="edge"><title>\\Pvra\\Result\\Collection&#45;&gt;\\JsonSerializable</title>
<path fill="none" stroke="black" stroke-dasharray="1,5" d="M1209.58,-624.666C1189.9,-621.786 1167.73,-614.862 1154,-599 1007.4,-429.585 1245.86,-259.935 1090,-99 1066.16,-74.3841 1029.43,-66.5327 996.389,-65.3071"/>
<polygon fill="none" stroke="black" points="996.331,-61.8056 986.271,-65.1282 996.207,-68.8045 996.331,-61.8056"/>
</g>
<!-- \\Pvra\\Result\\MessageFormatter -->
<g id="node24" class="node"><title>\\Pvra\\Result\\MessageFormatter</title>
<polygon fill="none" stroke="black" points="1314.5,-590 1189.5,-590 1189.5,-554 1314.5,-554 1314.5,-590"/>
<text text-anchor="middle" x="1252" y="-569.2" font-family="Courier,monospace" font-size="11.00">MessageFormatter</text>
</g>
<!-- \\Pvra\\Result\\MessageLocator -->
<g id="node25" class="node"><title>\\Pvra\\Result\\MessageLocator</title>
<polygon fill="none" stroke="black" points="1307.5,-428 1196.5,-428 1196.5,-392 1307.5,-392 1307.5,-428"/>
<text text-anchor="middle" x="1252" y="-407.2" font-family="Courier,monospace" font-size="11.00">MessageLocator</text>
</g>
<!-- \\ArrayAccess -->
<g id="node67" class="node"><title>\\ArrayAccess</title>
<ellipse fill="none" stroke="black" cx="921" cy="-18" rx="60.3893" ry="18"/>
<text text-anchor="middle" x="921" y="-14.3" font-family="Times New Roman,serif" font-size="14.00" fill="gray">\ArrayAccess</text>
</g>
<!-- \\Pvra\\Result\\MessageLocator&#45;&gt;\\ArrayAccess -->
<g id="edge60" class="edge"><title>\\Pvra\\Result\\MessageLocator&#45;&gt;\\ArrayAccess</title>
<path fill="none" stroke="black" stroke-dasharray="1,5" d="M1196.48,-405.659C1180.81,-401.806 1165,-394.97 1154,-383 1050.54,-270.428 1199.6,-151.598 1090,-45 1063.5,-19.2243 1022.76,-12.1973 988.036,-11.748"/>
<polygon fill="none" stroke="black" points="987.932,-8.2484 977.948,-11.7956 987.965,-15.2483 987.932,-8.2484"/>
</g>
<!-- \\Pvra\\Result\\Reason -->
<g id="node26" class="node"><title>\\Pvra\\Result\\Reason</title>
<polygon fill="none" stroke="black" points="1294.5,-482 1209.5,-482 1209.5,-446 1294.5,-446 1294.5,-482"/>
<text text-anchor="start" x="1218" y="-467.7" font-family="Courier,monospace" font-size="11.00">«abstract»</text>
<text text-anchor="start" x="1231.5" y="-456.7" font-family="Courier,monospace" font-size="11.00">Reason</text>
</g>
<!-- \\Pvra\\Result\\Reasoning -->
<g id="node27" class="node"><title>\\Pvra\\Result\\Reasoning</title>
<polygon fill="none" stroke="black" points="1290.5,-536 1213.5,-536 1213.5,-500 1290.5,-500 1290.5,-536"/>
<text text-anchor="middle" x="1252" y="-515.2" font-family="Courier,monospace" font-size="11.00">Reasoning</text>
</g>
<!-- \\Pvra\\Result\\Reasoning&#45;&gt;\\JsonSerializable -->
<g id="edge64" class="edge"><title>\\Pvra\\Result\\Reasoning&#45;&gt;\\JsonSerializable</title>
<path fill="none" stroke="black" stroke-dasharray="1,5" d="M1213.22,-516.937C1192.8,-514.309 1168.81,-507.534 1154,-491 1036.2,-359.523 1214.98,-223.67 1090,-99 1065.93,-74.9884 1029.54,-67.1099 996.784,-65.7115"/>
<polygon fill="none" stroke="black" points="996.831,-62.2117 986.751,-65.4748 996.665,-69.2098 996.831,-62.2117"/>
</g>
<!-- \\Pvra\\Result\\Reasoning&#45;&gt;\\ArrayAccess -->
<g id="edge62" class="edge"><title>\\Pvra\\Result\\Reasoning&#45;&gt;\\ArrayAccess</title>
<path fill="none" stroke="black" stroke-dasharray="1,5" d="M1213.09,-517.046C1192.64,-514.452 1168.65,-507.677 1154,-491 1021.82,-340.571 1230.4,-187.786 1090,-45 1063.89,-18.4479 1022.76,-11.4982 987.732,-11.2841"/>
<polygon fill="none" stroke="black" points="987.515,-7.78633 977.558,-11.4052 987.599,-14.7858 987.515,-7.78633"/>
</g>
<!-- \\Pvra\\Result\\CallbackChainHelperTrait -->
<g id="node28" class="node"><title>\\Pvra\\Result\\CallbackChainHelperTrait</title>
<polygon fill="none" stroke="black" points="1341.5,-374 1162.5,-374 1162.5,-338 1341.5,-338 1341.5,-374"/>
<text text-anchor="middle" x="1252" y="-353.2" font-family="Courier,monospace" font-size="11.00">CallbackChainHelperTrait</text>
</g>
<!-- \\Pvra\\Analyser -->
<g id="node29" class="node"><title>\\Pvra\\Analyser</title>
<polygon fill="none" stroke="black" points="963.5,-898 878.5,-898 878.5,-862 963.5,-862 963.5,-898"/>
<text text-anchor="start" x="887" y="-883.7" font-family="Courier,monospace" font-size="11.00">«abstract»</text>
<text text-anchor="start" x="893.5" y="-872.7" font-family="Courier,monospace" font-size="11.00">Analyser</text>
</g>
<!-- \\Pvra\\AnalysisResult -->
<g id="node30" class="node"><title>\\Pvra\\AnalysisResult</title>
<polygon fill="none" stroke="black" points="1307.5,-716 1196.5,-716 1196.5,-680 1307.5,-680 1307.5,-716"/>
<text text-anchor="middle" x="1252" y="-695.2" font-family="Courier,monospace" font-size="11.00">AnalysisResult</text>
</g>
<!-- \\Pvra\\AnalysisResult&#45;&gt;\\IteratorAggregate -->
<g id="edge32" class="edge"><title>\\Pvra\\AnalysisResult&#45;&gt;\\IteratorAggregate</title>
<path fill="none" stroke="black" stroke-dasharray="1,5" d="M1196.3,-697.002C1180.62,-693.982 1164.85,-687.841 1154,-676 1011.88,-520.884 1236.98,-357.513 1090,-207 1067.37,-183.829 1033.31,-175.552 1001.76,-173.662"/>
<polygon fill="none" stroke="black" points="1001.76,-170.16 991.627,-173.263 1001.48,-177.154 1001.76,-170.16"/>
</g>
<!-- \\Pvra\\AnalysisResult&#45;&gt;\\Countable -->
<g id="edge34" class="edge"><title>\\Pvra\\AnalysisResult&#45;&gt;\\Countable</title>
<path fill="none" stroke="black" stroke-dasharray="1,5" d="M1196.45,-697.141C1180.68,-694.143 1164.82,-687.98 1154,-676 997.004,-502.242 1252.45,-321.672 1090,-153 1061.72,-123.632 1015.1,-118.083 978.132,-119.206"/>
<polygon fill="none" stroke="black" points="977.81,-115.717 967.986,-119.686 978.14,-122.71 977.81,-115.717"/>
</g>
<!-- \\Pvra\\FileAnalyser -->
<g id="node31" class="node"><title>\\Pvra\\FileAnalyser</title>
<polygon fill="none" stroke="black" points="1301,-896 1203,-896 1203,-860 1301,-860 1301,-896"/>
<text text-anchor="middle" x="1252" y="-875.2" font-family="Courier,monospace" font-size="11.00">FileAnalyser</text>
</g>
<!-- \\Pvra\\FileAnalyser&#45;&gt;\\Pvra\\Analyser -->
<g id="edge50" class="edge"><title>\\Pvra\\FileAnalyser&#45;&gt;\\Pvra\\Analyser</title>
<path fill="none" stroke="black" d="M1202.81,-878.293C1141.6,-878.665 1036.42,-879.304 973.626,-879.686"/>
<polygon fill="none" stroke="black" points="973.525,-876.187 963.547,-879.747 973.568,-883.186 973.525,-876.187"/>
</g>
<!-- \\Pvra\\StringAnalyser -->
<g id="node32" class="node"><title>\\Pvra\\StringAnalyser</title>
<polygon fill="none" stroke="black" points="1307.5,-842 1196.5,-842 1196.5,-806 1307.5,-806 1307.5,-842"/>
<text text-anchor="middle" x="1252" y="-821.2" font-family="Courier,monospace" font-size="11.00">StringAnalyser</text>
</g>
<!-- \\Pvra\\StringAnalyser&#45;&gt;\\Pvra\\Analyser -->
<g id="edge66" class="edge"><title>\\Pvra\\StringAnalyser&#45;&gt;\\Pvra\\Analyser</title>
<path fill="none" stroke="black" d="M1196.43,-836.628C1165.35,-843.542 1125.62,-851.916 1090,-858 1051.11,-864.642 1006.85,-870.364 973.532,-874.305"/>
<polygon fill="none" stroke="black" points="973.086,-870.834 963.56,-875.471 973.898,-877.786 973.086,-870.834"/>
</g>
<!-- \\PhpParser\\NodeVisitor -->
<g id="node72" class="node"><title>\\PhpParser\\NodeVisitor</title>
<ellipse fill="none" stroke="black" cx="98" cy="-1458" rx="97.4827" ry="18"/>
<text text-anchor="middle" x="98" y="-1454.3" font-family="Times New Roman,serif" font-size="14.00" fill="gray">\PhpParser\NodeVisitor</text>
</g>
<!-- \\Pvra\\AnalyserAwareInterface&#45;&gt;\\PhpParser\\NodeVisitor -->
<g id="edge68" class="edge"><title>\\Pvra\\AnalyserAwareInterface&#45;&gt;\\PhpParser\\NodeVisitor</title>
<path fill="none" stroke="black" d="M391.386,-1458C336.934,-1458 264.782,-1458 205.778,-1458"/>
<polygon fill="none" stroke="black" points="205.675,-1454.5 195.675,-1458 205.675,-1461.5 205.675,-1454.5"/>
</g>
</g>
</svg>
