<?xml version="1.0" encoding="UTF-8" standalone="no"?>
<!DOCTYPE svg PUBLIC "-//W3C//DTD SVG 1.1//EN"
 "http://www.w3.org/Graphics/SVG/1.1/DTD/svg11.dtd">
<!-- Generated by graphviz version 2.28.0 (20110507.0327)
 -->
<!-- Title: G Pages: 1 -->
<svg width="1430pt" height="1440pt"
 viewBox="0.00 0.00 1430.00 1440.00" xmlns="http://www.w3.org/2000/svg" xmlns:xlink="http://www.w3.org/1999/xlink">
<g id="graph1" class="graph" transform="scale(1 1) rotate(0) translate(4 1436)">
<title>G</title>
<polygon fill="white" stroke="white" points="-4,5 -4,-1436 1427,-1436 1427,5 -4,5"/>
<g id="graph2" class="cluster"><title>cluster_Global</title>
<polyline fill="none" stroke="gray" points="342,-228 1402,-228 "/>
<path fill="none" stroke="gray" d="M1402,-228C1408,-228 1414,-234 1414,-240"/>
<polyline fill="none" stroke="gray" points="1414,-240 1414,-1412 "/>
<path fill="none" stroke="gray" d="M1414,-1412C1414,-1418 1408,-1424 1402,-1424"/>
<polyline fill="none" stroke="gray" points="1402,-1424 342,-1424 "/>
<path fill="none" stroke="gray" d="M342,-1424C336,-1424 330,-1418 330,-1412"/>
<polyline fill="none" stroke="gray" points="330,-1412 330,-240 "/>
<path fill="none" stroke="gray" d="M330,-240C330,-234 336,-228 342,-228"/>
<text text-anchor="middle" x="872" y="-1411.2" font-family="Times New Roman,serif" font-size="11.00" fill="gray">Global</text>
</g>
<g id="graph3" class="cluster"><title>cluster_\Pvra</title>
<polyline fill="none" stroke="gray" points="350,-236 1394,-236 "/>
<path fill="none" stroke="gray" d="M1394,-236C1400,-236 1406,-242 1406,-248"/>
<polyline fill="none" stroke="gray" points="1406,-248 1406,-1384 "/>
<path fill="none" stroke="gray" d="M1406,-1384C1406,-1390 1400,-1396 1394,-1396"/>
<polyline fill="none" stroke="gray" points="1394,-1396 350,-1396 "/>
<path fill="none" stroke="gray" d="M350,-1396C344,-1396 338,-1390 338,-1384"/>
<polyline fill="none" stroke="gray" points="338,-1384 338,-248 "/>
<path fill="none" stroke="gray" d="M338,-248C338,-242 344,-236 350,-236"/>
<text text-anchor="middle" x="872" y="-1383.2" font-family="Times New Roman,serif" font-size="11.00" fill="gray">Pvra</text>
</g>
<g id="graph4" class="cluster"><title>cluster_\Pvra\Console</title>
<polyline fill="none" stroke="gray" points="858,-774 1345,-774 "/>
<path fill="none" stroke="gray" d="M1345,-774C1351,-774 1357,-780 1357,-786"/>
<polyline fill="none" stroke="gray" points="1357,-786 1357,-1078 "/>
<path fill="none" stroke="gray" d="M1357,-1078C1357,-1084 1351,-1090 1345,-1090"/>
<polyline fill="none" stroke="gray" points="1345,-1090 858,-1090 "/>
<path fill="none" stroke="gray" d="M858,-1090C852,-1090 846,-1084 846,-1078"/>
<polyline fill="none" stroke="gray" points="846,-1078 846,-786 "/>
<path fill="none" stroke="gray" d="M846,-786C846,-780 852,-774 858,-774"/>
<text text-anchor="middle" x="1101.5" y="-1077.2" font-family="Times New Roman,serif" font-size="11.00" fill="gray">Console</text>
</g>
<g id="graph5" class="cluster"><title>cluster_\Pvra\Console\Commands</title>
<polyline fill="none" stroke="gray" points="866,-828 1337,-828 "/>
<path fill="none" stroke="gray" d="M1337,-828C1343,-828 1349,-834 1349,-840"/>
<polyline fill="none" stroke="gray" points="1349,-840 1349,-1050 "/>
<path fill="none" stroke="gray" d="M1349,-1050C1349,-1056 1343,-1062 1337,-1062"/>
<polyline fill="none" stroke="gray" points="1337,-1062 866,-1062 "/>
<path fill="none" stroke="gray" d="M866,-1062C860,-1062 854,-1056 854,-1050"/>
<polyline fill="none" stroke="gray" points="854,-1050 854,-840 "/>
<path fill="none" stroke="gray" d="M854,-840C854,-834 860,-828 866,-828"/>
<text text-anchor="middle" x="1101.5" y="-1049.2" font-family="Times New Roman,serif" font-size="11.00" fill="gray">Commands</text>
</g>
<g id="graph6" class="cluster"><title>cluster_\Pvra\PhpParser</title>
<polyline fill="none" stroke="gray" points="358,-1098 1386,-1098 "/>
<path fill="none" stroke="gray" d="M1386,-1098C1392,-1098 1398,-1104 1398,-1110"/>
<polyline fill="none" stroke="gray" points="1398,-1110 1398,-1356 "/>
<path fill="none" stroke="gray" d="M1398,-1356C1398,-1362 1392,-1368 1386,-1368"/>
<polyline fill="none" stroke="gray" points="1386,-1368 358,-1368 "/>
<path fill="none" stroke="gray" d="M358,-1368C352,-1368 346,-1362 346,-1356"/>
<polyline fill="none" stroke="gray" points="346,-1356 346,-1110 "/>
<path fill="none" stroke="gray" d="M346,-1110C346,-1104 352,-1098 358,-1098"/>
<text text-anchor="middle" x="872" y="-1355.2" font-family="Times New Roman,serif" font-size="11.00" fill="gray">PhpParser</text>
</g>
<g id="graph7" class="cluster"><title>cluster_\Pvra\PhpParser\AnalysingNodeWalkers</title>
<polyline fill="none" stroke="gray" points="838,-1106 1378,-1106 "/>
<path fill="none" stroke="gray" d="M1378,-1106C1384,-1106 1390,-1112 1390,-1118"/>
<polyline fill="none" stroke="gray" points="1390,-1118 1390,-1328 "/>
<path fill="none" stroke="gray" d="M1390,-1328C1390,-1334 1384,-1340 1378,-1340"/>
<polyline fill="none" stroke="gray" points="1378,-1340 838,-1340 "/>
<path fill="none" stroke="gray" d="M838,-1340C832,-1340 826,-1334 826,-1328"/>
<polyline fill="none" stroke="gray" points="826,-1328 826,-1118 "/>
<path fill="none" stroke="gray" d="M826,-1118C826,-1112 832,-1106 838,-1106"/>
<text text-anchor="middle" x="1108" y="-1327.2" font-family="Times New Roman,serif" font-size="11.00" fill="gray">AnalysingNodeWalkers</text>
</g>
<g id="graph8" class="cluster"><title>cluster_\Pvra\RequirementAnalysis</title>
<polyline fill="none" stroke="gray" points="852,-244 1366,-244 "/>
<path fill="none" stroke="gray" d="M1366,-244C1372,-244 1378,-250 1378,-256"/>
<polyline fill="none" stroke="gray" points="1378,-256 1378,-754 "/>
<path fill="none" stroke="gray" d="M1378,-754C1378,-760 1372,-766 1366,-766"/>
<polyline fill="none" stroke="gray" points="1366,-766 852,-766 "/>
<path fill="none" stroke="gray" d="M852,-766C846,-766 840,-760 840,-754"/>
<polyline fill="none" stroke="gray" points="840,-754 840,-256 "/>
<path fill="none" stroke="gray" d="M840,-256C840,-250 846,-244 852,-244"/>
<text text-anchor="middle" x="1109" y="-753.2" font-family="Times New Roman,serif" font-size="11.00" fill="gray">RequirementAnalysis</text>
</g>
<g id="graph9" class="cluster"><title>cluster_\Pvra\RequirementAnalysis\Result</title>
<polyline fill="none" stroke="gray" points="1186,-298 1358,-298 "/>
<path fill="none" stroke="gray" d="M1358,-298C1364,-298 1370,-304 1370,-310"/>
<polyline fill="none" stroke="gray" points="1370,-310 1370,-628 "/>
<path fill="none" stroke="gray" d="M1370,-628C1370,-634 1364,-640 1358,-640"/>
<polyline fill="none" stroke="gray" points="1358,-640 1186,-640 "/>
<path fill="none" stroke="gray" d="M1186,-640C1180,-640 1174,-634 1174,-628"/>
<polyline fill="none" stroke="gray" points="1174,-628 1174,-310 "/>
<path fill="none" stroke="gray" d="M1174,-310C1174,-304 1180,-298 1186,-298"/>
<text text-anchor="middle" x="1272" y="-627.2" font-family="Times New Roman,serif" font-size="11.00" fill="gray">Result</text>
</g>
<!-- \\Pvra\\Console\\Commands\\CheckUpdateCommand -->
<g id="node5" class="node"><title>\\Pvra\\Console\\Commands\\CheckUpdateCommand</title>
<polygon fill="none" stroke="black" points="1341,-926 1203,-926 1203,-890 1341,-890 1341,-926"/>
<text text-anchor="middle" x="1272" y="-905.2" font-family="Courier,monospace" font-size="11.00">CheckUpdateCommand</text>
</g>
<!-- \\Symfony\\Component\\Console\\Command\\Command -->
<g id="node34" class="node"><title>\\Symfony\\Component\\Console\\Command\\Command</title>
<ellipse fill="none" stroke="black" cx="474" cy="-148" rx="205.264" ry="18"/>
<text text-anchor="middle" x="474" y="-144.3" font-family="Times New Roman,serif" font-size="14.00" fill="gray">\Symfony\Component\Console\Command\Command</text>
</g>
<!-- \\Pvra\\Console\\Commands\\CheckUpdateCommand&#45;&gt;\\Symfony\\Component\\Console\\Command\\Command -->
<g id="edge12" class="edge"><title>\\Pvra\\Console\\Commands\\CheckUpdateCommand&#45;&gt;\\Symfony\\Component\\Console\\Command\\Command</title>
<path fill="none" stroke="black" d="M1202.99,-904.194C1187.51,-900.109 1172.54,-893.019 1162,-881 972.985,-665.456 1295.6,-439.782 1090,-240 1036.26,-187.786 982.726,-269.888 922,-226"/>
</g>
<!-- \\Pvra\\Console\\Commands\\DirCommand -->
<g id="node6" class="node"><title>\\Pvra\\Console\\Commands\\DirCommand</title>
<polygon fill="none" stroke="black" points="1314,-872 1230,-872 1230,-836 1314,-836 1314,-872"/>
<text text-anchor="middle" x="1272" y="-851.2" font-family="Courier,monospace" font-size="11.00">DirCommand</text>
</g>
<!-- \\Pvra\\Console\\Commands\\DirCommand&#45;&gt;\\Symfony\\Component\\Console\\Command\\Command -->
<g id="edge14" class="edge"><title>\\Pvra\\Console\\Commands\\DirCommand&#45;&gt;\\Symfony\\Component\\Console\\Command\\Command</title>
<path fill="none" stroke="black" d="M1229.89,-856.639C1206.67,-855.769 1178.97,-850.355 1162,-832 982.044,-637.405 1280.94,-423.835 1090,-240 1036.03,-188.033 982.726,-269.888 922,-226"/>
<path fill="none" stroke="black" d="M920,-226C889.549,-203.992 788.256,-216.856 752,-207 718.208,-197.814 713.706,-184.495 680,-175 662.573,-170.091 644.056,-166.068 625.554,-162.773"/>
<polygon fill="none" stroke="black" points="626.034,-159.304 615.587,-161.066 624.853,-166.204 626.034,-159.304"/>
</g>
<!-- \\Pvra\\Console\\Commands\\DumpAstCommand -->
<g id="node7" class="node"><title>\\Pvra\\Console\\Commands\\DumpAstCommand</title>
<polygon fill="none" stroke="black" points="1327.5,-1034 1216.5,-1034 1216.5,-998 1327.5,-998 1327.5,-1034"/>
<text text-anchor="middle" x="1272" y="-1013.2" font-family="Courier,monospace" font-size="11.00">DumpAstCommand</text>
</g>
<!-- \\Pvra\\Console\\Commands\\PvraBaseCommand -->
<g id="node9" class="node"><title>\\Pvra\\Console\\Commands\\PvraBaseCommand</title>
<polygon fill="none" stroke="black" points="980,-980 862,-980 862,-944 980,-944 980,-980"/>
<text text-anchor="middle" x="921" y="-959.2" font-family="Courier,monospace" font-size="11.00">PvraBaseCommand</text>
</g>
<!-- \\Pvra\\Console\\Commands\\DumpAstCommand&#45;&gt;\\Pvra\\Console\\Commands\\PvraBaseCommand -->
<g id="edge16" class="edge"><title>\\Pvra\\Console\\Commands\\DumpAstCommand&#45;&gt;\\Pvra\\Console\\Commands\\PvraBaseCommand</title>
<path fill="none" stroke="black" d="M1216.47,-1007.56C1155.38,-998.111 1056.28,-982.776 990.134,-972.542"/>
<polygon fill="none" stroke="black" points="990.636,-969.078 980.218,-971.008 989.565,-975.996 990.636,-969.078"/>
</g>
<!-- \\Pvra\\Console\\Commands\\FileCommand -->
<g id="node8" class="node"><title>\\Pvra\\Console\\Commands\\FileCommand</title>
<polygon fill="none" stroke="black" points="1317.5,-980 1226.5,-980 1226.5,-944 1317.5,-944 1317.5,-980"/>
<text text-anchor="middle" x="1272" y="-959.2" font-family="Courier,monospace" font-size="11.00">FileCommand</text>
</g>
<!-- \\Pvra\\Console\\Commands\\FileCommand&#45;&gt;\\Pvra\\Console\\Commands\\PvraBaseCommand -->
<g id="edge18" class="edge"><title>\\Pvra\\Console\\Commands\\FileCommand&#45;&gt;\\Pvra\\Console\\Commands\\PvraBaseCommand</title>
<path fill="none" stroke="black" d="M1226.44,-962C1166.72,-962 1060.14,-962 990.259,-962"/>
<polygon fill="none" stroke="black" points="990.225,-958.5 980.225,-962 990.225,-965.5 990.225,-958.5"/>
</g>
<!-- \\Pvra\\Console\\Commands\\PvraBaseCommand&#45;&gt;\\Symfony\\Component\\Console\\Command\\Command -->
<g id="edge20" class="edge"><title>\\Pvra\\Console\\Commands\\PvraBaseCommand&#45;&gt;\\Symfony\\Component\\Console\\Command\\Command</title>
<path fill="none" stroke="black" d="M897.018,-943.911C859.437,-912.862 785.655,-845.438 752,-770 697.737,-648.368 773.68,-269.672 680,-175 675.08,-170.028 669.722,-165.657 664.02,-161.823"/>
<polygon fill="none" stroke="black" points="665.792,-158.804 655.432,-156.584 662.146,-164.78 665.792,-158.804"/>
</g>
<!-- \\Pvra\\Console\\Application -->
<g id="node10" class="node"><title>\\Pvra\\Console\\Application</title>
<polygon fill="none" stroke="black" points="1317.5,-818 1226.5,-818 1226.5,-782 1317.5,-782 1317.5,-818"/>
<text text-anchor="middle" x="1272" y="-797.2" font-family="Courier,monospace" font-size="11.00">Application</text>
</g>
<!-- \\Symfony\\Component\\Console\\Application -->
<g id="node32" class="node"><title>\\Symfony\\Component\\Console\\Application</title>
<ellipse fill="none" stroke="black" cx="921" cy="-180" rx="168.97" ry="18"/>
<text text-anchor="middle" x="921" y="-176.3" font-family="Times New Roman,serif" font-size="14.00" fill="gray">\Symfony\Component\Console\Application</text>
</g>
<!-- \\Pvra\\Console\\Application&#45;&gt;\\Symfony\\Component\\Console\\Application -->
<g id="edge10" class="edge"><title>\\Pvra\\Console\\Application&#45;&gt;\\Symfony\\Component\\Console\\Application</title>
<path fill="none" stroke="black" d="M1226.4,-798.915C1203.82,-795.924 1177.9,-788.299 1162,-770 998.008,-581.229 1261.44,-394.032 1090,-212 1083.71,-205.326 1076.5,-199.796 1068.67,-195.232"/>
<polygon fill="none" stroke="black" points="1070.08,-192.016 1059.59,-190.48 1066.83,-198.218 1070.08,-192.016"/>
</g>
<!-- \\Pvra\\PhpParser\\AnalysingNodeWalkers\\LanguageFeatureAnalyser -->
<g id="node13" class="node"><title>\\Pvra\\PhpParser\\AnalysingNodeWalkers\\LanguageFeatureAnalyser</title>
<polygon fill="none" stroke="black" points="1007.5,-1212 834.5,-1212 834.5,-1176 1007.5,-1176 1007.5,-1212"/>
<text text-anchor="start" x="887" y="-1197.7" font-family="Courier,monospace" font-size="11.00">«abstract»</text>
<text text-anchor="start" x="843" y="-1186.7" font-family="Courier,monospace" font-size="11.00">LanguageFeatureAnalyser</text>
</g>
<!-- \\Pvra\\PhpParser\\RequirementAnalyserAwareInterface -->
<g id="node18" class="node"><title>\\Pvra\\PhpParser\\RequirementAnalyserAwareInterface</title>
<polygon fill="none" stroke="black" points="593.5,-1232 354.5,-1232 354.5,-1196 593.5,-1196 593.5,-1232"/>
<text text-anchor="middle" x="474" y="-1211.2" font-family="Courier,monospace" font-size="11.00">RequirementAnalyserAwareInterface</text>
</g>
<!-- \\Pvra\\PhpParser\\AnalysingNodeWalkers\\LanguageFeatureAnalyser&#45;&gt;\\Pvra\\PhpParser\\RequirementAnalyserAwareInterface -->
<g id="edge24" class="edge"><title>\\Pvra\\PhpParser\\AnalysingNodeWalkers\\LanguageFeatureAnalyser&#45;&gt;\\Pvra\\PhpParser\\RequirementAnalyserAwareInterface</title>
<path fill="none" stroke="black" stroke-dasharray="1,5" d="M834.463,-1197.84C769.239,-1200.78 678.315,-1204.86 604.233,-1208.19"/>
<polygon fill="none" stroke="black" points="603.729,-1204.71 593.896,-1208.66 604.043,-1211.7 603.729,-1204.71"/>
</g>
<!-- \\PhpParser\\NodeVisitorAbstract -->
<g id="node40" class="node"><title>\\PhpParser\\NodeVisitorAbstract</title>
<ellipse fill="none" stroke="black" cx="474" cy="-202" rx="128.877" ry="18"/>
<text text-anchor="middle" x="474" y="-198.3" font-family="Times New Roman,serif" font-size="14.00" fill="gray">\PhpParser\NodeVisitorAbstract</text>
</g>
<!-- \\Pvra\\PhpParser\\AnalysingNodeWalkers\\LanguageFeatureAnalyser&#45;&gt;\\PhpParser\\NodeVisitorAbstract -->
<g id="edge22" class="edge"><title>\\Pvra\\PhpParser\\AnalysingNodeWalkers\\LanguageFeatureAnalyser&#45;&gt;\\PhpParser\\NodeVisitorAbstract</title>
<path fill="none" stroke="black" d="M884.985,-1175.9C846.969,-1154.54 787.012,-1115.57 752,-1066 551.267,-781.822 490.714,-344.846 477.876,-230.283"/>
<polygon fill="none" stroke="black" points="481.342,-229.781 476.78,-220.219 474.384,-230.539 481.342,-229.781"/>
</g>
<!-- \\Pvra\\PhpParser\\AnalysingNodeWalkers\\LibraryAdditionsNodeWalker -->
<g id="node14" class="node"><title>\\Pvra\\PhpParser\\AnalysingNodeWalkers\\LibraryAdditionsNodeWalker</title>
<polygon fill="none" stroke="black" points="1368,-1150 1176,-1150 1176,-1114 1368,-1114 1368,-1150"/>
<text text-anchor="middle" x="1272" y="-1129.2" font-family="Courier,monospace" font-size="11.00">LibraryAdditionsNodeWalker</text>
</g>
<!-- \\Pvra\\PhpParser\\AnalysingNodeWalkers\\LibraryAdditionsNodeWalker&#45;&gt;\\Pvra\\PhpParser\\AnalysingNodeWalkers\\LanguageFeatureAnalyser -->
<g id="edge26" class="edge"><title>\\Pvra\\PhpParser\\AnalysingNodeWalkers\\LibraryAdditionsNodeWalker&#45;&gt;\\Pvra\\PhpParser\\AnalysingNodeWalkers\\LanguageFeatureAnalyser</title>
<path fill="none" stroke="black" d="M1175.63,-1148.94C1126.54,-1157.66 1066.85,-1168.27 1017.71,-1177"/>
<polygon fill="none" stroke="black" points="1016.94,-1173.58 1007.71,-1178.77 1018.17,-1180.47 1016.94,-1173.58"/>
</g>
<!-- \\Pvra\\PhpParser\\AnalysingNodeWalkers\\LibraryAdditionsNodeWalker&#45;&gt;\\Pvra\\PhpParser\\RequirementAnalyserAwareInterface -->
<g id="edge28" class="edge"><title>\\Pvra\\PhpParser\\AnalysingNodeWalkers\\LibraryAdditionsNodeWalker&#45;&gt;\\Pvra\\PhpParser\\RequirementAnalyserAwareInterface</title>
<path fill="none" stroke="black" stroke-dasharray="1,5" d="M1182.53,-1150.1C1175.43,-1152.69 1168.5,-1155.64 1162,-1159 1124.48,-1178.38 1128.94,-1204.67 1090,-1221 1020.9,-1249.97 996.923,-1234.41 922,-1235"/>
<path fill="none" stroke="black" stroke-dasharray="1,5" d="M920,-1235C813.507,-1235.83 692.834,-1229.69 604.043,-1223.84"/>
<polygon fill="none" stroke="black" points="604.132,-1220.34 593.922,-1223.17 603.667,-1227.33 604.132,-1220.34"/>
</g>
<!-- \\Pvra\\PhpParser\\AnalysingNodeWalkers\\Php54LanguageFeatureNodeWalker -->
<g id="node15" class="node"><title>\\Pvra\\PhpParser\\AnalysingNodeWalkers\\Php54LanguageFeatureNodeWalker</title>
<polygon fill="none" stroke="black" points="1381.5,-1204 1162.5,-1204 1162.5,-1168 1381.5,-1168 1381.5,-1204"/>
<text text-anchor="middle" x="1272" y="-1183.2" font-family="Courier,monospace" font-size="11.00">Php54LanguageFeatureNodeWalker</text>
</g>
<!-- \\Pvra\\PhpParser\\AnalysingNodeWalkers\\Php54LanguageFeatureNodeWalker&#45;&gt;\\Pvra\\PhpParser\\AnalysingNodeWalkers\\LanguageFeatureAnalyser -->
<g id="edge30" class="edge"><title>\\Pvra\\PhpParser\\AnalysingNodeWalkers\\Php54LanguageFeatureNodeWalker&#45;&gt;\\Pvra\\PhpParser\\AnalysingNodeWalkers\\LanguageFeatureAnalyser</title>
<path fill="none" stroke="black" d="M1162.49,-1188.49C1116.17,-1189.55 1062.57,-1190.78 1017.75,-1191.81"/>
<polygon fill="none" stroke="black" points="1017.65,-1188.31 1007.73,-1192.03 1017.81,-1195.3 1017.65,-1188.31"/>
</g>
<!-- \\Pvra\\PhpParser\\AnalysingNodeWalkers\\Php54LanguageFeatureNodeWalker&#45;&gt;\\Pvra\\PhpParser\\RequirementAnalyserAwareInterface -->
<g id="edge32" class="edge"><title>\\Pvra\\PhpParser\\AnalysingNodeWalkers\\Php54LanguageFeatureNodeWalker&#45;&gt;\\Pvra\\PhpParser\\RequirementAnalyserAwareInterface</title>
<path fill="none" stroke="black" stroke-dasharray="1,5" d="M1187.96,-1204.01C1157.3,-1210.14 1122.18,-1216.56 1090,-1221 1015.78,-1231.24 996.923,-1234.41 922,-1235"/>
</g>
<!-- \\Pvra\\PhpParser\\AnalysingNodeWalkers\\Php55LanguageFeatureNodeWalker -->
<g id="node16" class="node"><title>\\Pvra\\PhpParser\\AnalysingNodeWalkers\\Php55LanguageFeatureNodeWalker</title>
<polygon fill="none" stroke="black" points="1381.5,-1258 1162.5,-1258 1162.5,-1222 1381.5,-1222 1381.5,-1258"/>
<text text-anchor="middle" x="1272" y="-1237.2" font-family="Courier,monospace" font-size="11.00">Php55LanguageFeatureNodeWalker</text>
</g>
<!-- \\Pvra\\PhpParser\\AnalysingNodeWalkers\\Php55LanguageFeatureNodeWalker&#45;&gt;\\Pvra\\PhpParser\\AnalysingNodeWalkers\\LanguageFeatureAnalyser -->
<g id="edge34" class="edge"><title>\\Pvra\\PhpParser\\AnalysingNodeWalkers\\Php55LanguageFeatureNodeWalker&#45;&gt;\\Pvra\\PhpParser\\AnalysingNodeWalkers\\LanguageFeatureAnalyser</title>
<path fill="none" stroke="black" d="M1162.37,-1225.57C1138.53,-1222.41 1113.41,-1219.09 1090,-1216 1066.65,-1212.92 1041.47,-1209.62 1017.9,-1206.53"/>
<polygon fill="none" stroke="black" points="1018.27,-1203.05 1007.9,-1205.22 1017.36,-1209.99 1018.27,-1203.05"/>
</g>
<!-- \\Pvra\\PhpParser\\AnalysingNodeWalkers\\Php55LanguageFeatureNodeWalker&#45;&gt;\\Pvra\\PhpParser\\RequirementAnalyserAwareInterface -->
<g id="edge36" class="edge"><title>\\Pvra\\PhpParser\\AnalysingNodeWalkers\\Php55LanguageFeatureNodeWalker&#45;&gt;\\Pvra\\PhpParser\\RequirementAnalyserAwareInterface</title>
<path fill="none" stroke="black" stroke-dasharray="1,5" d="M1162.14,-1237.2C1093.3,-1235.74 1002.44,-1234.37 922,-1235"/>
</g>
<!-- \\Pvra\\PhpParser\\AnalysingNodeWalkers\\Php56LanguageFeatureNodeWalker -->
<g id="node17" class="node"><title>\\Pvra\\PhpParser\\AnalysingNodeWalkers\\Php56LanguageFeatureNodeWalker</title>
<polygon fill="none" stroke="black" points="1381.5,-1312 1162.5,-1312 1162.5,-1276 1381.5,-1276 1381.5,-1312"/>
<text text-anchor="middle" x="1272" y="-1291.2" font-family="Courier,monospace" font-size="11.00">Php56LanguageFeatureNodeWalker</text>
</g>
<!-- \\Pvra\\PhpParser\\AnalysingNodeWalkers\\Php56LanguageFeatureNodeWalker&#45;&gt;\\Pvra\\PhpParser\\AnalysingNodeWalkers\\LanguageFeatureAnalyser -->
<g id="edge38" class="edge"><title>\\Pvra\\PhpParser\\AnalysingNodeWalkers\\Php56LanguageFeatureNodeWalker&#45;&gt;\\Pvra\\PhpParser\\AnalysingNodeWalkers\\LanguageFeatureAnalyser</title>
<path fill="none" stroke="black" d="M1185.16,-1276C1177.19,-1273.36 1169.36,-1270.37 1162,-1267 1126.35,-1250.67 1126.51,-1230.3 1090,-1216 1067.47,-1207.18 1042.08,-1201.75 1017.98,-1198.45"/>
<polygon fill="none" stroke="black" points="1018.11,-1194.94 1007.75,-1197.17 1017.24,-1201.89 1018.11,-1194.94"/>
</g>
<!-- \\Pvra\\PhpParser\\AnalysingNodeWalkers\\Php56LanguageFeatureNodeWalker&#45;&gt;\\Pvra\\PhpParser\\RequirementAnalyserAwareInterface -->
<g id="edge40" class="edge"><title>\\Pvra\\PhpParser\\AnalysingNodeWalkers\\Php56LanguageFeatureNodeWalker&#45;&gt;\\Pvra\\PhpParser\\RequirementAnalyserAwareInterface</title>
<path fill="none" stroke="black" stroke-dasharray="1,5" d="M1185.32,-1275.98C1099.09,-1258.49 971.927,-1234.61 922,-1235"/>
</g>
<!-- \\PhpParser\\NodeVisitor -->
<g id="node62" class="node"><title>\\PhpParser\\NodeVisitor</title>
<ellipse fill="none" stroke="black" cx="98" cy="-1214" rx="97.4827" ry="18"/>
<text text-anchor="middle" x="98" y="-1210.3" font-family="Times New Roman,serif" font-size="14.00" fill="gray">\PhpParser\NodeVisitor</text>
</g>
<!-- \\Pvra\\PhpParser\\RequirementAnalyserAwareInterface&#45;&gt;\\PhpParser\\NodeVisitor -->
<g id="edge58" class="edge"><title>\\Pvra\\PhpParser\\RequirementAnalyserAwareInterface&#45;&gt;\\PhpParser\\NodeVisitor</title>
<path fill="none" stroke="black" d="M354.407,-1214C306.769,-1214 252.261,-1214 205.868,-1214"/>
<polygon fill="none" stroke="black" points="205.793,-1210.5 195.793,-1214 205.793,-1217.5 205.793,-1210.5"/>
</g>
<!-- \\Pvra\\RequirementAnalysis\\Result\\RequirementReason -->
<g id="node21" class="node"><title>\\Pvra\\RequirementAnalysis\\Result\\RequirementReason</title>
<polygon fill="none" stroke="black" points="1338,-612 1206,-612 1206,-576 1338,-576 1338,-612"/>
<text text-anchor="start" x="1238" y="-597.7" font-family="Courier,monospace" font-size="11.00">«abstract»</text>
<text text-anchor="start" x="1214.5" y="-586.7" font-family="Courier,monospace" font-size="11.00">RequirementReason</text>
</g>
<!-- \\Pvra\\RequirementAnalysis\\Result\\RequirementReasoning -->
<g id="node22" class="node"><title>\\Pvra\\RequirementAnalysis\\Result\\RequirementReasoning</title>
<polygon fill="none" stroke="black" points="1348,-558 1196,-558 1196,-522 1348,-522 1348,-558"/>
<text text-anchor="middle" x="1272" y="-537.2" font-family="Courier,monospace" font-size="11.00">RequirementReasoning</text>
</g>
<!-- \\ArrayAccess -->
<g id="node56" class="node"><title>\\ArrayAccess</title>
<ellipse fill="none" stroke="black" cx="921" cy="-126" rx="60.3893" ry="18"/>
<text text-anchor="middle" x="921" y="-122.3" font-family="Times New Roman,serif" font-size="14.00" fill="gray">\ArrayAccess</text>
</g>
<!-- \\Pvra\\RequirementAnalysis\\Result\\RequirementReasoning&#45;&gt;\\ArrayAccess -->
<g id="edge48" class="edge"><title>\\Pvra\\RequirementAnalysis\\Result\\RequirementReasoning&#45;&gt;\\ArrayAccess</title>
<path fill="none" stroke="black" stroke-dasharray="1,5" d="M1195.8,-533.21C1183.14,-528.982 1171.16,-522.585 1162,-513 1049.27,-395.032 1207.55,-266.162 1090,-153 1063.46,-127.454 1022.92,-120.388 988.311,-119.86"/>
<polygon fill="none" stroke="black" points="988.247,-116.36 978.255,-119.884 988.263,-123.36 988.247,-116.36"/>
</g>
<!-- \\Pvra\\RequirementAnalysis\\Result\\ResultCollection -->
<g id="node23" class="node"><title>\\Pvra\\RequirementAnalysis\\Result\\ResultCollection</title>
<polygon fill="none" stroke="black" points="1334.5,-396 1209.5,-396 1209.5,-360 1334.5,-360 1334.5,-396"/>
<text text-anchor="middle" x="1272" y="-375.2" font-family="Courier,monospace" font-size="11.00">ResultCollection</text>
</g>
<!-- \\IteratorAggregate -->
<g id="node52" class="node"><title>\\IteratorAggregate</title>
<ellipse fill="none" stroke="black" cx="921" cy="-72" rx="76.0865" ry="18"/>
<text text-anchor="middle" x="921" y="-68.3" font-family="Times New Roman,serif" font-size="14.00" fill="gray">\IteratorAggregate</text>
</g>
<!-- \\Pvra\\RequirementAnalysis\\Result\\ResultCollection&#45;&gt;\\IteratorAggregate -->
<g id="edge52" class="edge"><title>\\Pvra\\RequirementAnalysis\\Result\\ResultCollection&#45;&gt;\\IteratorAggregate</title>
<path fill="none" stroke="black" stroke-dasharray="1,5" d="M1209.44,-374.164C1192.23,-370.293 1174.77,-363.32 1162,-351 1078.19,-270.109 1177.12,-176.324 1090,-99 1066.88,-78.4745 1034.58,-70.2196 1004.47,-67.6326"/>
<polygon fill="none" stroke="black" points="1004.57,-64.1317 994.361,-66.963 1004.11,-71.1164 1004.57,-64.1317"/>
</g>
<!-- \\Countable -->
<g id="node54" class="node"><title>\\Countable</title>
<ellipse fill="none" stroke="black" cx="921" cy="-18" rx="50.0912" ry="18"/>
<text text-anchor="middle" x="921" y="-14.3" font-family="Times New Roman,serif" font-size="14.00" fill="gray">\Countable</text>
</g>
<!-- \\Pvra\\RequirementAnalysis\\Result\\ResultCollection&#45;&gt;\\Countable -->
<g id="edge50" class="edge"><title>\\Pvra\\RequirementAnalysis\\Result\\ResultCollection&#45;&gt;\\Countable</title>
<path fill="none" stroke="black" stroke-dasharray="1,5" d="M1209.35,-374.598C1192.04,-370.755 1174.54,-363.687 1162,-351 1063.79,-251.63 1192.27,-140.186 1090,-45 1060.77,-17.798 1015.58,-11.7931 979.424,-12.1853"/>
<polygon fill="none" stroke="black" points="978.905,-8.69822 969.005,-12.4741 979.099,-15.6955 978.905,-8.69822"/>
</g>
<!-- \\Pvra\\RequirementAnalysis\\Result\\ResultMessageFormatter -->
<g id="node24" class="node"><title>\\Pvra\\RequirementAnalysis\\Result\\ResultMessageFormatter</title>
<polygon fill="none" stroke="black" points="1354.5,-450 1189.5,-450 1189.5,-414 1354.5,-414 1354.5,-450"/>
<text text-anchor="middle" x="1272" y="-429.2" font-family="Courier,monospace" font-size="11.00">ResultMessageFormatter</text>
</g>
<!-- \\Pvra\\RequirementAnalysis\\Result\\ResultMessageLocator -->
<g id="node25" class="node"><title>\\Pvra\\RequirementAnalysis\\Result\\ResultMessageLocator</title>
<polygon fill="none" stroke="black" points="1348,-504 1196,-504 1196,-468 1348,-468 1348,-504"/>
<text text-anchor="middle" x="1272" y="-483.2" font-family="Courier,monospace" font-size="11.00">ResultMessageLocator</text>
</g>
<!-- \\Pvra\\RequirementAnalysis\\Result\\ResultMessageLocator&#45;&gt;\\ArrayAccess -->
<g id="edge54" class="edge"><title>\\Pvra\\RequirementAnalysis\\Result\\ResultMessageLocator&#45;&gt;\\ArrayAccess</title>
<path fill="none" stroke="black" stroke-dasharray="1,5" d="M1195.78,-478.865C1183.2,-474.661 1171.25,-468.36 1162,-459 1063.79,-359.63 1192.27,-248.186 1090,-153 1063.13,-127.996 1022.78,-120.902 988.353,-120.223"/>
<polygon fill="none" stroke="black" points="988.358,-116.723 978.35,-120.199 988.341,-123.723 988.358,-116.723"/>
</g>
<!-- \\Pvra\\RequirementAnalysis\\Result\\CallbackChainHelperTrait -->
<g id="node26" class="node"><title>\\Pvra\\RequirementAnalysis\\Result\\CallbackChainHelperTrait</title>
<polygon fill="none" stroke="black" points="1361.5,-342 1182.5,-342 1182.5,-306 1361.5,-306 1361.5,-342"/>
<text text-anchor="middle" x="1272" y="-321.2" font-family="Courier,monospace" font-size="11.00">CallbackChainHelperTrait</text>
</g>
<!-- \\Pvra\\RequirementAnalysis\\FileRequirementAnalyser -->
<g id="node27" class="node"><title>\\Pvra\\RequirementAnalysis\\FileRequirementAnalyser</title>
<polygon fill="none" stroke="black" points="1358,-738 1186,-738 1186,-702 1358,-702 1358,-738"/>
<text text-anchor="middle" x="1272" y="-717.2" font-family="Courier,monospace" font-size="11.00">FileRequirementAnalyser</text>
</g>
<!-- \\Pvra\\RequirementAnalysis\\RequirementAnalyser -->
<g id="node28" class="node"><title>\\Pvra\\RequirementAnalysis\\RequirementAnalyser</title>
<polygon fill="none" stroke="black" points="994,-711 848,-711 848,-675 994,-675 994,-711"/>
<text text-anchor="start" x="887" y="-696.7" font-family="Courier,monospace" font-size="11.00">«abstract»</text>
<text text-anchor="start" x="856.5" y="-685.7" font-family="Courier,monospace" font-size="11.00">RequirementAnalyser</text>
</g>
<!-- \\Pvra\\RequirementAnalysis\\FileRequirementAnalyser&#45;&gt;\\Pvra\\RequirementAnalysis\\RequirementAnalyser -->
<g id="edge42" class="edge"><title>\\Pvra\\RequirementAnalysis\\FileRequirementAnalyser&#45;&gt;\\Pvra\\RequirementAnalysis\\RequirementAnalyser</title>
<path fill="none" stroke="black" d="M1185.62,-713.395C1130.34,-709.118 1058.75,-703.579 1004.12,-699.353"/>
<polygon fill="none" stroke="black" points="1004.37,-695.862 994.126,-698.58 1003.83,-702.841 1004.37,-695.862"/>
</g>
<!-- \\Pvra\\RequirementAnalysis\\RequirementAnalysisResult -->
<g id="node29" class="node"><title>\\Pvra\\RequirementAnalysis\\RequirementAnalysisResult</title>
<polygon fill="none" stroke="black" points="1364.5,-288 1179.5,-288 1179.5,-252 1364.5,-252 1364.5,-288"/>
<text text-anchor="middle" x="1272" y="-267.2" font-family="Courier,monospace" font-size="11.00">RequirementAnalysisResult</text>
</g>
<!-- \\Pvra\\RequirementAnalysis\\RequirementAnalysisResult&#45;&gt;\\IteratorAggregate -->
<g id="edge44" class="edge"><title>\\Pvra\\RequirementAnalysis\\RequirementAnalysisResult&#45;&gt;\\IteratorAggregate</title>
<path fill="none" stroke="black" stroke-dasharray="1,5" d="M1257.94,-251.851C1231.05,-215.986 1165.6,-136.286 1090,-99 1064.4,-86.3737 1034.19,-79.4324 1006.49,-75.6834"/>
<polygon fill="none" stroke="black" points="1006.77,-72.1912 996.418,-74.442 1005.91,-79.1386 1006.77,-72.1912"/>
</g>
<!-- \\Pvra\\RequirementAnalysis\\RequirementAnalysisResult&#45;&gt;\\Countable -->
<g id="edge46" class="edge"><title>\\Pvra\\RequirementAnalysis\\RequirementAnalysisResult&#45;&gt;\\Countable</title>
<path fill="none" stroke="black" stroke-dasharray="1,5" d="M1262.42,-251.959C1240.55,-208.2 1178.21,-96.2534 1090,-45 1057.25,-25.9689 1015.15,-19.2291 981.294,-17.2419"/>
<polygon fill="none" stroke="black" points="981.221,-13.7348 971.07,-16.7694 980.897,-20.7274 981.221,-13.7348"/>
</g>
<!-- \\Pvra\\RequirementAnalysis\\StringRequirementAnalyser -->
<g id="node30" class="node"><title>\\Pvra\\RequirementAnalysis\\StringRequirementAnalyser</title>
<polygon fill="none" stroke="black" points="1364.5,-684 1179.5,-684 1179.5,-648 1364.5,-648 1364.5,-684"/>
<text text-anchor="middle" x="1272" y="-663.2" font-family="Courier,monospace" font-size="11.00">StringRequirementAnalyser</text>
</g>
<!-- \\Pvra\\RequirementAnalysis\\StringRequirementAnalyser&#45;&gt;\\Pvra\\RequirementAnalysis\\RequirementAnalyser -->
<g id="edge56" class="edge"><title>\\Pvra\\RequirementAnalysis\\StringRequirementAnalyser&#45;&gt;\\Pvra\\RequirementAnalysis\\RequirementAnalyser</title>
<path fill="none" stroke="black" d="M1179.3,-673.094C1125.06,-677.291 1056.92,-682.562 1004.39,-686.626"/>
<polygon fill="none" stroke="black" points="1003.8,-683.161 994.098,-687.422 1004.34,-690.14 1003.8,-683.161"/>
</g>
</g>
</svg>
