<?xml version="1.0" encoding="UTF-8" standalone="no"?>
<!DOCTYPE svg PUBLIC "-//W3C//DTD SVG 1.1//EN"
 "http://www.w3.org/Graphics/SVG/1.1/DTD/svg11.dtd">
<!-- Generated by graphviz version 2.28.0 (20110507.0327)
 -->
<!-- Title: G Pages: 1 -->
<svg width="1526pt" height="1592pt"
 viewBox="0.00 0.00 1526.00 1592.00" xmlns="http://www.w3.org/2000/svg" xmlns:xlink="http://www.w3.org/1999/xlink">
<g id="graph1" class="graph" transform="scale(1 1) rotate(0) translate(4 1588)">
<title>G</title>
<polygon fill="white" stroke="white" points="-4,5 -4,-1588 1523,-1588 1523,5 -4,5"/>
<g id="graph2" class="cluster"><title>cluster_Global</title>
<polyline fill="none" stroke="gray" points="342,-298 1498,-298 "/>
<path fill="none" stroke="gray" d="M1498,-298C1504,-298 1510,-304 1510,-310"/>
<polyline fill="none" stroke="gray" points="1510,-310 1510,-1564 "/>
<path fill="none" stroke="gray" d="M1510,-1564C1510,-1570 1504,-1576 1498,-1576"/>
<polyline fill="none" stroke="gray" points="1498,-1576 342,-1576 "/>
<path fill="none" stroke="gray" d="M342,-1576C336,-1576 330,-1570 330,-1564"/>
<polyline fill="none" stroke="gray" points="330,-1564 330,-310 "/>
<path fill="none" stroke="gray" d="M330,-310C330,-304 336,-298 342,-298"/>
<text text-anchor="middle" x="920" y="-1563.2" font-family="Times New Roman,serif" font-size="11.00" fill="gray">Global</text>
</g>
<g id="graph3" class="cluster"><title>cluster_\Pvra</title>
<polyline fill="none" stroke="gray" points="350,-306 1490,-306 "/>
<path fill="none" stroke="gray" d="M1490,-306C1496,-306 1502,-312 1502,-318"/>
<polyline fill="none" stroke="gray" points="1502,-318 1502,-1536 "/>
<path fill="none" stroke="gray" d="M1502,-1536C1502,-1542 1496,-1548 1490,-1548"/>
<polyline fill="none" stroke="gray" points="1490,-1548 350,-1548 "/>
<path fill="none" stroke="gray" d="M350,-1548C344,-1548 338,-1542 338,-1536"/>
<polyline fill="none" stroke="gray" points="338,-1536 338,-318 "/>
<path fill="none" stroke="gray" d="M338,-318C338,-312 344,-306 350,-306"/>
<text text-anchor="middle" x="920" y="-1535.2" font-family="Times New Roman,serif" font-size="11.00" fill="gray">Pvra</text>
</g>
<g id="graph4" class="cluster"><title>cluster_\Pvra\PhpParser</title>
<polyline fill="none" stroke="gray" points="358,-1250 1430,-1250 "/>
<path fill="none" stroke="gray" d="M1430,-1250C1436,-1250 1442,-1256 1442,-1262"/>
<polyline fill="none" stroke="gray" points="1442,-1262 1442,-1508 "/>
<path fill="none" stroke="gray" d="M1442,-1508C1442,-1514 1436,-1520 1430,-1520"/>
<polyline fill="none" stroke="gray" points="1430,-1520 358,-1520 "/>
<path fill="none" stroke="gray" d="M358,-1520C352,-1520 346,-1514 346,-1508"/>
<polyline fill="none" stroke="gray" points="346,-1508 346,-1262 "/>
<path fill="none" stroke="gray" d="M346,-1262C346,-1256 352,-1250 358,-1250"/>
<text text-anchor="middle" x="894" y="-1507.2" font-family="Times New Roman,serif" font-size="11.00" fill="gray">PhpParser</text>
</g>
<g id="graph5" class="cluster"><title>cluster_\Pvra\PhpParser\AnalysingNodeWalkers</title>
<polyline fill="none" stroke="gray" points="838,-1258 1422,-1258 "/>
<path fill="none" stroke="gray" d="M1422,-1258C1428,-1258 1434,-1264 1434,-1270"/>
<polyline fill="none" stroke="gray" points="1434,-1270 1434,-1480 "/>
<path fill="none" stroke="gray" d="M1434,-1480C1434,-1486 1428,-1492 1422,-1492"/>
<polyline fill="none" stroke="gray" points="1422,-1492 838,-1492 "/>
<path fill="none" stroke="gray" d="M838,-1492C832,-1492 826,-1486 826,-1480"/>
<polyline fill="none" stroke="gray" points="826,-1480 826,-1270 "/>
<path fill="none" stroke="gray" d="M826,-1270C826,-1264 832,-1258 838,-1258"/>
<text text-anchor="middle" x="1130" y="-1479.2" font-family="Times New Roman,serif" font-size="11.00" fill="gray">AnalysingNodeWalkers</text>
</g>
<g id="graph6" class="cluster"><title>cluster_\Pvra\RequirementAnalysis</title>
<polyline fill="none" stroke="gray" points="852,-638 1482,-638 "/>
<path fill="none" stroke="gray" d="M1482,-638C1488,-638 1494,-644 1494,-650"/>
<polyline fill="none" stroke="gray" points="1494,-650 1494,-1230 "/>
<path fill="none" stroke="gray" d="M1494,-1230C1494,-1236 1488,-1242 1482,-1242"/>
<polyline fill="none" stroke="gray" points="1482,-1242 852,-1242 "/>
<path fill="none" stroke="gray" d="M852,-1242C846,-1242 840,-1236 840,-1230"/>
<polyline fill="none" stroke="gray" points="840,-1230 840,-650 "/>
<path fill="none" stroke="gray" d="M840,-650C840,-644 846,-638 852,-638"/>
<text text-anchor="middle" x="1167" y="-1229.2" font-family="Times New Roman,serif" font-size="11.00" fill="gray">RequirementAnalysis</text>
</g>
<g id="graph7" class="cluster"><title>cluster_\Pvra\RequirementAnalysis\Result</title>
<polyline fill="none" stroke="gray" points="1158,-692 1474,-692 "/>
<path fill="none" stroke="gray" d="M1474,-692C1480,-692 1486,-698 1486,-704"/>
<polyline fill="none" stroke="gray" points="1486,-704 1486,-1104 "/>
<path fill="none" stroke="gray" d="M1486,-1104C1486,-1110 1480,-1116 1474,-1116"/>
<polyline fill="none" stroke="gray" points="1474,-1116 1158,-1116 "/>
<path fill="none" stroke="gray" d="M1158,-1116C1152,-1116 1146,-1110 1146,-1104"/>
<polyline fill="none" stroke="gray" points="1146,-1104 1146,-704 "/>
<path fill="none" stroke="gray" d="M1146,-704C1146,-698 1152,-692 1158,-692"/>
<text text-anchor="middle" x="1316" y="-1103.2" font-family="Times New Roman,serif" font-size="11.00" fill="gray">Result</text>
</g>
<g id="graph8" class="cluster"><title>cluster_\Pvra\RequirementAnalysis\Result\Exceptions</title>
<polyline fill="none" stroke="gray" points="1166,-1016 1466,-1016 "/>
<path fill="none" stroke="gray" d="M1466,-1016C1472,-1016 1478,-1022 1478,-1028"/>
<polyline fill="none" stroke="gray" points="1478,-1028 1478,-1076 "/>
<path fill="none" stroke="gray" d="M1478,-1076C1478,-1082 1472,-1088 1466,-1088"/>
<polyline fill="none" stroke="gray" points="1466,-1088 1166,-1088 "/>
<path fill="none" stroke="gray" d="M1166,-1088C1160,-1088 1154,-1082 1154,-1076"/>
<polyline fill="none" stroke="gray" points="1154,-1076 1154,-1028 "/>
<path fill="none" stroke="gray" d="M1154,-1028C1154,-1022 1160,-1016 1166,-1016"/>
<text text-anchor="middle" x="1316" y="-1075.2" font-family="Times New Roman,serif" font-size="11.00" fill="gray">Exceptions</text>
</g>
<g id="graph9" class="cluster"><title>cluster_\Pvra\Console</title>
<polyline fill="none" stroke="gray" points="858,-314 1389,-314 "/>
<path fill="none" stroke="gray" d="M1389,-314C1395,-314 1401,-320 1401,-326"/>
<polyline fill="none" stroke="gray" points="1401,-326 1401,-618 "/>
<path fill="none" stroke="gray" d="M1401,-618C1401,-624 1395,-630 1389,-630"/>
<polyline fill="none" stroke="gray" points="1389,-630 858,-630 "/>
<path fill="none" stroke="gray" d="M858,-630C852,-630 846,-624 846,-618"/>
<polyline fill="none" stroke="gray" points="846,-618 846,-326 "/>
<path fill="none" stroke="gray" d="M846,-326C846,-320 852,-314 858,-314"/>
<text text-anchor="middle" x="1123.5" y="-617.2" font-family="Times New Roman,serif" font-size="11.00" fill="gray">Console</text>
</g>
<g id="graph10" class="cluster"><title>cluster_\Pvra\Console\Commands</title>
<polyline fill="none" stroke="gray" points="866,-368 1381,-368 "/>
<path fill="none" stroke="gray" d="M1381,-368C1387,-368 1393,-374 1393,-380"/>
<polyline fill="none" stroke="gray" points="1393,-380 1393,-590 "/>
<path fill="none" stroke="gray" d="M1393,-590C1393,-596 1387,-602 1381,-602"/>
<polyline fill="none" stroke="gray" points="1381,-602 866,-602 "/>
<path fill="none" stroke="gray" d="M866,-602C860,-602 854,-596 854,-590"/>
<polyline fill="none" stroke="gray" points="854,-590 854,-380 "/>
<path fill="none" stroke="gray" d="M854,-380C854,-374 860,-368 866,-368"/>
<text text-anchor="middle" x="1123.5" y="-589.2" font-family="Times New Roman,serif" font-size="11.00" fill="gray">Commands</text>
</g>
<!-- \\Pvra\\PhpParser\\AnalysingNodeWalkers\\Php56LanguageFeatureNodeWalker -->
<g id="node5" class="node"><title>\\Pvra\\PhpParser\\AnalysingNodeWalkers\\Php56LanguageFeatureNodeWalker</title>
<polygon fill="none" stroke="black" points="1425.5,-1410 1206.5,-1410 1206.5,-1374 1425.5,-1374 1425.5,-1410"/>
<text text-anchor="middle" x="1316" y="-1389.2" font-family="Courier,monospace" font-size="11.00">Php56LanguageFeatureNodeWalker</text>
</g>
<!-- \\Pvra\\PhpParser\\AnalysingNodeWalkers\\LanguageFeatureAnalyser -->
<g id="node8" class="node"><title>\\Pvra\\PhpParser\\AnalysingNodeWalkers\\LanguageFeatureAnalyser</title>
<polygon fill="none" stroke="black" points="1007.5,-1364 834.5,-1364 834.5,-1328 1007.5,-1328 1007.5,-1364"/>
<text text-anchor="start" x="887" y="-1349.7" font-family="Courier,monospace" font-size="11.00">«abstract»</text>
<text text-anchor="start" x="843" y="-1338.7" font-family="Courier,monospace" font-size="11.00">LanguageFeatureAnalyser</text>
</g>
<!-- \\Pvra\\PhpParser\\AnalysingNodeWalkers\\Php56LanguageFeatureNodeWalker&#45;&gt;\\Pvra\\PhpParser\\AnalysingNodeWalkers\\LanguageFeatureAnalyser -->
<g id="edge11" class="edge"><title>\\Pvra\\PhpParser\\AnalysingNodeWalkers\\Php56LanguageFeatureNodeWalker&#45;&gt;\\Pvra\\PhpParser\\AnalysingNodeWalkers\\LanguageFeatureAnalyser</title>
<path fill="none" stroke="black" d="M1206.31,-1379.28C1147.16,-1372.35 1074.65,-1363.87 1017.66,-1357.2"/>
<polygon fill="none" stroke="black" points="1017.9,-1353.7 1007.56,-1356.02 1017.09,-1360.65 1017.9,-1353.7"/>
</g>
<!-- \\Pvra\\PhpParser\\RequirementAnalyserAwareInterface -->
<g id="node10" class="node"><title>\\Pvra\\PhpParser\\RequirementAnalyserAwareInterface</title>
<polygon fill="none" stroke="black" points="593.5,-1384 354.5,-1384 354.5,-1348 593.5,-1348 593.5,-1384"/>
<text text-anchor="middle" x="474" y="-1363.2" font-family="Courier,monospace" font-size="11.00">RequirementAnalyserAwareInterface</text>
</g>
<!-- \\Pvra\\PhpParser\\AnalysingNodeWalkers\\Php56LanguageFeatureNodeWalker&#45;&gt;\\Pvra\\PhpParser\\RequirementAnalyserAwareInterface -->
<g id="edge13" class="edge"><title>\\Pvra\\PhpParser\\AnalysingNodeWalkers\\Php56LanguageFeatureNodeWalker&#45;&gt;\\Pvra\\PhpParser\\RequirementAnalyserAwareInterface</title>
<path fill="none" stroke="black" stroke-dasharray="1,5" d="M1206.16,-1389.62C1127.27,-1388.14 1018.04,-1386.58 922,-1387"/>
</g>
<!-- \\Pvra\\PhpParser\\AnalysingNodeWalkers\\Php55LanguageFeatureNodeWalker -->
<g id="node6" class="node"><title>\\Pvra\\PhpParser\\AnalysingNodeWalkers\\Php55LanguageFeatureNodeWalker</title>
<polygon fill="none" stroke="black" points="1425.5,-1464 1206.5,-1464 1206.5,-1428 1425.5,-1428 1425.5,-1464"/>
<text text-anchor="middle" x="1316" y="-1443.2" font-family="Courier,monospace" font-size="11.00">Php55LanguageFeatureNodeWalker</text>
</g>
<!-- \\Pvra\\PhpParser\\AnalysingNodeWalkers\\Php55LanguageFeatureNodeWalker&#45;&gt;\\Pvra\\PhpParser\\AnalysingNodeWalkers\\LanguageFeatureAnalyser -->
<g id="edge27" class="edge"><title>\\Pvra\\PhpParser\\AnalysingNodeWalkers\\Php55LanguageFeatureNodeWalker&#45;&gt;\\Pvra\\PhpParser\\AnalysingNodeWalkers\\LanguageFeatureAnalyser</title>
<path fill="none" stroke="black" d="M1206.23,-1438.15C1185.57,-1434.04 1164.61,-1427.96 1146,-1419 1115.67,-1404.4 1120.54,-1382.17 1090,-1368 1067.72,-1357.66 1042.1,-1351.73 1017.69,-1348.42"/>
<polygon fill="none" stroke="black" points="1018.04,-1344.94 1007.69,-1347.2 1017.19,-1351.89 1018.04,-1344.94"/>
</g>
<!-- \\Pvra\\PhpParser\\AnalysingNodeWalkers\\Php55LanguageFeatureNodeWalker&#45;&gt;\\Pvra\\PhpParser\\RequirementAnalyserAwareInterface -->
<g id="edge29" class="edge"><title>\\Pvra\\PhpParser\\AnalysingNodeWalkers\\Php55LanguageFeatureNodeWalker&#45;&gt;\\Pvra\\PhpParser\\RequirementAnalyserAwareInterface</title>
<path fill="none" stroke="black" stroke-dasharray="1,5" d="M1206.47,-1428.87C1095.14,-1411.43 936.219,-1386.94 922,-1387"/>
</g>
<!-- \\Pvra\\PhpParser\\AnalysingNodeWalkers\\LibraryAdditionsNodeWalker -->
<g id="node7" class="node"><title>\\Pvra\\PhpParser\\AnalysingNodeWalkers\\LibraryAdditionsNodeWalker</title>
<polygon fill="none" stroke="black" points="1412,-1302 1220,-1302 1220,-1266 1412,-1266 1412,-1302"/>
<text text-anchor="middle" x="1316" y="-1281.2" font-family="Courier,monospace" font-size="11.00">LibraryAdditionsNodeWalker</text>
</g>
<!-- \\Pvra\\PhpParser\\AnalysingNodeWalkers\\LibraryAdditionsNodeWalker&#45;&gt;\\Pvra\\PhpParser\\AnalysingNodeWalkers\\LanguageFeatureAnalyser -->
<g id="edge31" class="edge"><title>\\Pvra\\PhpParser\\AnalysingNodeWalkers\\LibraryAdditionsNodeWalker&#45;&gt;\\Pvra\\PhpParser\\AnalysingNodeWalkers\\LanguageFeatureAnalyser</title>
<path fill="none" stroke="black" d="M1219.87,-1299.01C1158.54,-1308.68 1079.07,-1321.22 1017.64,-1330.91"/>
<polygon fill="none" stroke="black" points="1016.89,-1327.49 1007.56,-1332.5 1017.98,-1334.4 1016.89,-1327.49"/>
</g>
<!-- \\Pvra\\PhpParser\\AnalysingNodeWalkers\\LibraryAdditionsNodeWalker&#45;&gt;\\Pvra\\PhpParser\\RequirementAnalyserAwareInterface -->
<g id="edge33" class="edge"><title>\\Pvra\\PhpParser\\AnalysingNodeWalkers\\LibraryAdditionsNodeWalker&#45;&gt;\\Pvra\\PhpParser\\RequirementAnalyserAwareInterface</title>
<path fill="none" stroke="black" stroke-dasharray="1,5" d="M1219.67,-1287.85C1194.59,-1291.84 1168.33,-1298.88 1146,-1311 1113.37,-1328.71 1123.28,-1356.53 1090,-1373 1022.85,-1406.24 996.925,-1386.67 922,-1387"/>
<path fill="none" stroke="black" stroke-dasharray="1,5" d="M920,-1387C813.505,-1387.46 692.832,-1381.35 604.041,-1375.61"/>
<polygon fill="none" stroke="black" points="604.128,-1372.1 593.92,-1374.94 603.67,-1379.09 604.128,-1372.1"/>
</g>
<!-- \\Pvra\\PhpParser\\AnalysingNodeWalkers\\LanguageFeatureAnalyser&#45;&gt;\\Pvra\\PhpParser\\RequirementAnalyserAwareInterface -->
<g id="edge39" class="edge"><title>\\Pvra\\PhpParser\\AnalysingNodeWalkers\\LanguageFeatureAnalyser&#45;&gt;\\Pvra\\PhpParser\\RequirementAnalyserAwareInterface</title>
<path fill="none" stroke="black" stroke-dasharray="1,5" d="M834.463,-1349.84C769.239,-1352.78 678.315,-1356.86 604.233,-1360.19"/>
<polygon fill="none" stroke="black" points="603.729,-1356.71 593.896,-1360.66 604.043,-1363.7 603.729,-1356.71"/>
</g>
<!-- \\PhpParser\\NodeVisitorAbstract -->
<g id="node51" class="node"><title>\\PhpParser\\NodeVisitorAbstract</title>
<ellipse fill="none" stroke="black" cx="474" cy="-272" rx="128.877" ry="18"/>
<text text-anchor="middle" x="474" y="-268.3" font-family="Times New Roman,serif" font-size="14.00" fill="gray">\PhpParser\NodeVisitorAbstract</text>
</g>
<!-- \\Pvra\\PhpParser\\AnalysingNodeWalkers\\LanguageFeatureAnalyser&#45;&gt;\\PhpParser\\NodeVisitorAbstract -->
<g id="edge37" class="edge"><title>\\Pvra\\PhpParser\\AnalysingNodeWalkers\\LanguageFeatureAnalyser&#45;&gt;\\PhpParser\\NodeVisitorAbstract</title>
<path fill="none" stroke="black" d="M869.556,-1327.91C831.912,-1311.92 782,-1285.02 752,-1246 512.755,-934.844 480.126,-425.605 475.694,-300.447"/>
<polygon fill="none" stroke="black" points="479.183,-300.063 475.365,-290.18 472.187,-300.287 479.183,-300.063"/>
</g>
<!-- \\Pvra\\PhpParser\\AnalysingNodeWalkers\\Php54LanguageFeatureNodeWalker -->
<g id="node9" class="node"><title>\\Pvra\\PhpParser\\AnalysingNodeWalkers\\Php54LanguageFeatureNodeWalker</title>
<polygon fill="none" stroke="black" points="1425.5,-1356 1206.5,-1356 1206.5,-1320 1425.5,-1320 1425.5,-1356"/>
<text text-anchor="middle" x="1316" y="-1335.2" font-family="Courier,monospace" font-size="11.00">Php54LanguageFeatureNodeWalker</text>
</g>
<!-- \\Pvra\\PhpParser\\AnalysingNodeWalkers\\Php54LanguageFeatureNodeWalker&#45;&gt;\\Pvra\\PhpParser\\AnalysingNodeWalkers\\LanguageFeatureAnalyser -->
<g id="edge51" class="edge"><title>\\Pvra\\PhpParser\\AnalysingNodeWalkers\\Php54LanguageFeatureNodeWalker&#45;&gt;\\Pvra\\PhpParser\\AnalysingNodeWalkers\\LanguageFeatureAnalyser</title>
<path fill="none" stroke="black" d="M1206.31,-1340.21C1147.16,-1341.42 1074.65,-1342.89 1017.66,-1344.05"/>
<polygon fill="none" stroke="black" points="1017.49,-1340.56 1007.56,-1344.26 1017.63,-1347.55 1017.49,-1340.56"/>
</g>
<!-- \\Pvra\\PhpParser\\AnalysingNodeWalkers\\Php54LanguageFeatureNodeWalker&#45;&gt;\\Pvra\\PhpParser\\RequirementAnalyserAwareInterface -->
<g id="edge53" class="edge"><title>\\Pvra\\PhpParser\\AnalysingNodeWalkers\\Php54LanguageFeatureNodeWalker&#45;&gt;\\Pvra\\PhpParser\\RequirementAnalyserAwareInterface</title>
<path fill="none" stroke="black" stroke-dasharray="1,5" d="M1206.31,-1355.26C1154.91,-1363.36 1102.12,-1371.55 1090,-1373 1015.6,-1381.88 996.925,-1386.67 922,-1387"/>
</g>
<!-- \\PhpParser\\NodeVisitor -->
<g id="node66" class="node"><title>\\PhpParser\\NodeVisitor</title>
<ellipse fill="none" stroke="black" cx="98" cy="-1366" rx="97.4827" ry="18"/>
<text text-anchor="middle" x="98" y="-1362.3" font-family="Times New Roman,serif" font-size="14.00" fill="gray">\PhpParser\NodeVisitor</text>
</g>
<!-- \\Pvra\\PhpParser\\RequirementAnalyserAwareInterface&#45;&gt;\\PhpParser\\NodeVisitor -->
<g id="edge61" class="edge"><title>\\Pvra\\PhpParser\\RequirementAnalyserAwareInterface&#45;&gt;\\PhpParser\\NodeVisitor</title>
<path fill="none" stroke="black" d="M354.407,-1366C306.769,-1366 252.261,-1366 205.868,-1366"/>
<polygon fill="none" stroke="black" points="205.793,-1362.5 195.793,-1366 205.793,-1369.5 205.793,-1362.5"/>
</g>
<!-- \\Pvra\\RequirementAnalysis\\Result\\Exceptions\\MessageLocationNeedsToBeTerminatedException -->
<g id="node14" class="node"><title>\\Pvra\\RequirementAnalysis\\Result\\Exceptions\\MessageLocationNeedsToBeTerminatedException</title>
<polygon fill="none" stroke="black" points="1469.5,-1060 1162.5,-1060 1162.5,-1024 1469.5,-1024 1469.5,-1060"/>
<text text-anchor="middle" x="1316" y="-1039.2" font-family="Courier,monospace" font-size="11.00">MessageLocationNeedsToBeTerminatedException</text>
</g>
<!-- \\Exception -->
<g id="node61" class="node"><title>\\Exception</title>
<ellipse fill="none" stroke="black" cx="921" cy="-272" rx="50.0912" ry="18"/>
<text text-anchor="middle" x="921" y="-268.3" font-family="Times New Roman,serif" font-size="14.00" fill="gray">\Exception</text>
</g>
<!-- \\Pvra\\RequirementAnalysis\\Result\\Exceptions\\MessageLocationNeedsToBeTerminatedException&#45;&gt;\\Exception -->
<g id="edge55" class="edge"><title>\\Pvra\\RequirementAnalysis\\Result\\Exceptions\\MessageLocationNeedsToBeTerminatedException&#45;&gt;\\Exception</title>
<path fill="none" stroke="black" d="M1162.27,-1033.19C1156.38,-1029.49 1150.91,-1025.13 1146,-1020 1044.86,-914.279 1169.87,-486.584 1090,-364 1063.14,-322.776 1011.21,-298.472 972.158,-285.3"/>
<polygon fill="none" stroke="black" points="973.123,-281.934 962.531,-282.188 970.97,-288.594 973.123,-281.934"/>
</g>
<!-- \\Pvra\\RequirementAnalysis\\Result\\RequirementReason -->
<g id="node15" class="node"><title>\\Pvra\\RequirementAnalysis\\Result\\RequirementReason</title>
<polygon fill="none" stroke="black" points="1382,-1006 1250,-1006 1250,-970 1382,-970 1382,-1006"/>
<text text-anchor="start" x="1282" y="-991.7" font-family="Courier,monospace" font-size="11.00">«abstract»</text>
<text text-anchor="start" x="1258.5" y="-980.7" font-family="Courier,monospace" font-size="11.00">RequirementReason</text>
</g>
<!-- \\Pvra\\RequirementAnalysis\\Result\\ResultCollection -->
<g id="node16" class="node"><title>\\Pvra\\RequirementAnalysis\\Result\\ResultCollection</title>
<polygon fill="none" stroke="black" points="1378.5,-898 1253.5,-898 1253.5,-862 1378.5,-862 1378.5,-898"/>
<text text-anchor="middle" x="1316" y="-877.2" font-family="Courier,monospace" font-size="11.00">ResultCollection</text>
</g>
<!-- \\IteratorAggregate -->
<g id="node36" class="node"><title>\\IteratorAggregate</title>
<ellipse fill="none" stroke="black" cx="921" cy="-110" rx="76.0865" ry="18"/>
<text text-anchor="middle" x="921" y="-106.3" font-family="Times New Roman,serif" font-size="14.00" fill="gray">\IteratorAggregate</text>
</g>
<!-- \\Pvra\\RequirementAnalysis\\Result\\ResultCollection&#45;&gt;\\IteratorAggregate -->
<g id="edge49" class="edge"><title>\\Pvra\\RequirementAnalysis\\Result\\ResultCollection&#45;&gt;\\IteratorAggregate</title>
<path fill="none" stroke="black" stroke-dasharray="1,5" d="M1253.18,-887.421C1216.7,-888.102 1172.6,-881.825 1146,-853 1037.77,-735.705 1198.17,-254.345 1090,-137 1067.69,-112.795 1032.97,-104.547 1000.87,-102.95"/>
<polygon fill="none" stroke="black" points="1000.65,-99.4428 990.555,-102.654 1000.45,-106.44 1000.65,-99.4428"/>
</g>
<!-- \\Countable -->
<g id="node38" class="node"><title>\\Countable</title>
<ellipse fill="none" stroke="black" cx="921" cy="-164" rx="50.0912" ry="18"/>
<text text-anchor="middle" x="921" y="-160.3" font-family="Times New Roman,serif" font-size="14.00" fill="gray">\Countable</text>
</g>
<!-- \\Pvra\\RequirementAnalysis\\Result\\ResultCollection&#45;&gt;\\Countable -->
<g id="edge47" class="edge"><title>\\Pvra\\RequirementAnalysis\\Result\\ResultCollection&#45;&gt;\\Countable</title>
<path fill="none" stroke="black" stroke-dasharray="1,5" d="M1253.24,-887.362C1216.79,-888.021 1172.69,-881.74 1146,-853 1045.54,-744.813 1190.41,-299.233 1090,-191 1062.18,-161.01 1015.3,-155.565 978.117,-156.886"/>
<polygon fill="none" stroke="black" points="977.714,-153.402 967.911,-157.423 978.082,-160.392 977.714,-153.402"/>
</g>
<!-- \\Pvra\\RequirementAnalysis\\Result\\RequirementReasoning -->
<g id="node17" class="node"><title>\\Pvra\\RequirementAnalysis\\Result\\RequirementReasoning</title>
<polygon fill="none" stroke="black" points="1392,-952 1240,-952 1240,-916 1392,-916 1392,-952"/>
<text text-anchor="middle" x="1316" y="-931.2" font-family="Courier,monospace" font-size="11.00">RequirementReasoning</text>
</g>
<!-- \\ArrayAccess -->
<g id="node63" class="node"><title>\\ArrayAccess</title>
<ellipse fill="none" stroke="black" cx="921" cy="-218" rx="60.3893" ry="18"/>
<text text-anchor="middle" x="921" y="-214.3" font-family="Times New Roman,serif" font-size="14.00" fill="gray">\ArrayAccess</text>
</g>
<!-- \\Pvra\\RequirementAnalysis\\Result\\RequirementReasoning&#45;&gt;\\ArrayAccess -->
<g id="edge57" class="edge"><title>\\Pvra\\RequirementAnalysis\\Result\\RequirementReasoning&#45;&gt;\\ArrayAccess</title>
<path fill="none" stroke="black" stroke-dasharray="1,5" d="M1239.69,-941.268C1206.35,-940.168 1169.45,-932.257 1146,-907 1045.54,-798.813 1190.41,-353.233 1090,-245 1064.4,-217.405 1022.66,-210.591 987.195,-210.708"/>
<polygon fill="none" stroke="black" points="986.818,-207.215 976.896,-210.931 986.97,-214.213 986.818,-207.215"/>
</g>
<!-- \\Pvra\\RequirementAnalysis\\Result\\ResultMessageFormatter -->
<g id="node18" class="node"><title>\\Pvra\\RequirementAnalysis\\Result\\ResultMessageFormatter</title>
<polygon fill="none" stroke="black" points="1398.5,-844 1233.5,-844 1233.5,-808 1398.5,-808 1398.5,-844"/>
<text text-anchor="middle" x="1316" y="-823.2" font-family="Courier,monospace" font-size="11.00">ResultMessageFormatter</text>
</g>
<!-- \\Pvra\\RequirementAnalysis\\Result\\ResultMessageLocator -->
<g id="node19" class="node"><title>\\Pvra\\RequirementAnalysis\\Result\\ResultMessageLocator</title>
<polygon fill="none" stroke="black" points="1392,-790 1240,-790 1240,-754 1392,-754 1392,-790"/>
<text text-anchor="middle" x="1316" y="-769.2" font-family="Courier,monospace" font-size="11.00">ResultMessageLocator</text>
</g>
<!-- \\Pvra\\RequirementAnalysis\\Result\\ResultMessageLocator&#45;&gt;\\ArrayAccess -->
<g id="edge59" class="edge"><title>\\Pvra\\RequirementAnalysis\\Result\\ResultMessageLocator&#45;&gt;\\ArrayAccess</title>
<path fill="none" stroke="black" stroke-dasharray="1,5" d="M1240,-778.98C1206.72,-777.817 1169.79,-769.936 1146,-745 991.633,-583.219 1244.29,-406.852 1090,-245 1064.12,-217.852 1022.59,-210.991 987.292,-210.972"/>
<polygon fill="none" stroke="black" points="986.98,-207.477 977.044,-211.154 987.104,-214.476 986.98,-207.477"/>
</g>
<!-- \\Pvra\\RequirementAnalysis\\Result\\CallbackChainHelperTrait -->
<g id="node20" class="node"><title>\\Pvra\\RequirementAnalysis\\Result\\CallbackChainHelperTrait</title>
<polygon fill="none" stroke="black" points="1405.5,-736 1226.5,-736 1226.5,-700 1405.5,-700 1405.5,-736"/>
<text text-anchor="middle" x="1316" y="-715.2" font-family="Courier,monospace" font-size="11.00">CallbackChainHelperTrait</text>
</g>
<!-- \\Pvra\\RequirementAnalysis\\RequirementAnalysisResult -->
<g id="node21" class="node"><title>\\Pvra\\RequirementAnalysis\\RequirementAnalysisResult</title>
<polygon fill="none" stroke="black" points="1408.5,-682 1223.5,-682 1223.5,-646 1408.5,-646 1408.5,-682"/>
<text text-anchor="middle" x="1316" y="-661.2" font-family="Courier,monospace" font-size="11.00">RequirementAnalysisResult</text>
</g>
<!-- \\Pvra\\RequirementAnalysis\\RequirementAnalysisResult&#45;&gt;\\IteratorAggregate -->
<g id="edge15" class="edge"><title>\\Pvra\\RequirementAnalysis\\RequirementAnalysisResult&#45;&gt;\\IteratorAggregate</title>
<path fill="none" stroke="black" stroke-dasharray="1,5" d="M1223.17,-652.014C1194.35,-643.689 1165.1,-629.647 1146,-606 1014.08,-442.704 1235.4,-288.416 1090,-137 1067.48,-113.544 1033.26,-105.268 1001.57,-103.454"/>
<polygon fill="none" stroke="black" points="1001.5,-99.9499 991.384,-103.082 1001.25,-106.945 1001.5,-99.9499"/>
</g>
<!-- \\Pvra\\RequirementAnalysis\\RequirementAnalysisResult&#45;&gt;\\Countable -->
<g id="edge17" class="edge"><title>\\Pvra\\RequirementAnalysis\\RequirementAnalysisResult&#45;&gt;\\Countable</title>
<path fill="none" stroke="black" stroke-dasharray="1,5" d="M1223.37,-651.847C1194.57,-643.508 1165.28,-629.5 1146,-606 1027.94,-462.123 1219.93,-324.253 1090,-191 1061.63,-161.904 1015.24,-156.282 978.384,-157.307"/>
<polygon fill="none" stroke="black" points="978.1,-153.817 968.266,-157.759 978.412,-160.81 978.1,-153.817"/>
</g>
<!-- \\Pvra\\RequirementAnalysis\\RequirementAnalyser -->
<g id="node22" class="node"><title>\\Pvra\\RequirementAnalysis\\RequirementAnalyser</title>
<polygon fill="none" stroke="black" points="994,-1187 848,-1187 848,-1151 994,-1151 994,-1187"/>
<text text-anchor="start" x="887" y="-1172.7" font-family="Courier,monospace" font-size="11.00">«abstract»</text>
<text text-anchor="start" x="856.5" y="-1161.7" font-family="Courier,monospace" font-size="11.00">RequirementAnalyser</text>
</g>
<!-- \\Pvra\\RequirementAnalysis\\FileRequirementAnalyser -->
<g id="node23" class="node"><title>\\Pvra\\RequirementAnalysis\\FileRequirementAnalyser</title>
<polygon fill="none" stroke="black" points="1402,-1214 1230,-1214 1230,-1178 1402,-1178 1402,-1214"/>
<text text-anchor="middle" x="1316" y="-1193.2" font-family="Courier,monospace" font-size="11.00">FileRequirementAnalyser</text>
</g>
<!-- \\Pvra\\RequirementAnalysis\\FileRequirementAnalyser&#45;&gt;\\Pvra\\RequirementAnalysis\\RequirementAnalyser -->
<g id="edge41" class="edge"><title>\\Pvra\\RequirementAnalysis\\FileRequirementAnalyser&#45;&gt;\\Pvra\\RequirementAnalysis\\RequirementAnalyser</title>
<path fill="none" stroke="black" d="M1229.72,-1190.14C1162.97,-1185.56 1070.69,-1179.22 1004.63,-1174.68"/>
<polygon fill="none" stroke="black" points="1004.48,-1171.16 994.259,-1173.96 1004,-1178.14 1004.48,-1171.16"/>
</g>
<!-- \\Pvra\\RequirementAnalysis\\StringRequirementAnalyser -->
<g id="node24" class="node"><title>\\Pvra\\RequirementAnalysis\\StringRequirementAnalyser</title>
<polygon fill="none" stroke="black" points="1408.5,-1160 1223.5,-1160 1223.5,-1124 1408.5,-1124 1408.5,-1160"/>
<text text-anchor="middle" x="1316" y="-1139.2" font-family="Courier,monospace" font-size="11.00">StringRequirementAnalyser</text>
</g>
<!-- \\Pvra\\RequirementAnalysis\\StringRequirementAnalyser&#45;&gt;\\Pvra\\RequirementAnalysis\\RequirementAnalyser -->
<g id="edge45" class="edge"><title>\\Pvra\\RequirementAnalysis\\StringRequirementAnalyser&#45;&gt;\\Pvra\\RequirementAnalysis\\RequirementAnalyser</title>
<path fill="none" stroke="black" d="M1223.35,-1148.3C1157.04,-1152.85 1068.2,-1158.96 1004.18,-1163.35"/>
<polygon fill="none" stroke="black" points="1003.87,-1159.87 994.129,-1164.04 1004.35,-1166.85 1003.87,-1159.87"/>
</g>
<!-- \\Pvra\\Console\\Commands\\DumpAstCommand -->
<g id="node27" class="node"><title>\\Pvra\\Console\\Commands\\DumpAstCommand</title>
<polygon fill="none" stroke="black" points="1371.5,-574 1260.5,-574 1260.5,-538 1371.5,-538 1371.5,-574"/>
<text text-anchor="middle" x="1316" y="-553.2" font-family="Courier,monospace" font-size="11.00">DumpAstCommand</text>
</g>
<!-- \\Pvra\\Console\\Commands\\PvraBaseCommand -->
<g id="node31" class="node"><title>\\Pvra\\Console\\Commands\\PvraBaseCommand</title>
<polygon fill="none" stroke="black" points="980,-520 862,-520 862,-484 980,-484 980,-520"/>
<text text-anchor="middle" x="921" y="-499.2" font-family="Courier,monospace" font-size="11.00">PvraBaseCommand</text>
</g>
<!-- \\Pvra\\Console\\Commands\\DumpAstCommand&#45;&gt;\\Pvra\\Console\\Commands\\PvraBaseCommand -->
<g id="edge19" class="edge"><title>\\Pvra\\Console\\Commands\\DumpAstCommand&#45;&gt;\\Pvra\\Console\\Commands\\PvraBaseCommand</title>
<path fill="none" stroke="black" d="M1260.36,-548.492C1189.71,-538.784 1066.68,-521.88 990.048,-511.35"/>
<polygon fill="none" stroke="black" points="990.398,-507.865 980.015,-509.972 989.445,-514.8 990.398,-507.865"/>
</g>
<!-- \\Pvra\\Console\\Commands\\FileCommand -->
<g id="node28" class="node"><title>\\Pvra\\Console\\Commands\\FileCommand</title>
<polygon fill="none" stroke="black" points="1361.5,-520 1270.5,-520 1270.5,-484 1361.5,-484 1361.5,-520"/>
<text text-anchor="middle" x="1316" y="-499.2" font-family="Courier,monospace" font-size="11.00">FileCommand</text>
</g>
<!-- \\Pvra\\Console\\Commands\\FileCommand&#45;&gt;\\Pvra\\Console\\Commands\\PvraBaseCommand -->
<g id="edge21" class="edge"><title>\\Pvra\\Console\\Commands\\FileCommand&#45;&gt;\\Pvra\\Console\\Commands\\PvraBaseCommand</title>
<path fill="none" stroke="black" d="M1270.3,-502C1201.81,-502 1070.41,-502 990.042,-502"/>
<polygon fill="none" stroke="black" points="990.019,-498.5 980.019,-502 990.019,-505.5 990.019,-498.5"/>
</g>
<!-- \\Pvra\\Console\\Commands\\CheckUpdateCommand -->
<g id="node29" class="node"><title>\\Pvra\\Console\\Commands\\CheckUpdateCommand</title>
<polygon fill="none" stroke="black" points="1385,-466 1247,-466 1247,-430 1385,-430 1385,-466"/>
<text text-anchor="middle" x="1316" y="-445.2" font-family="Courier,monospace" font-size="11.00">CheckUpdateCommand</text>
</g>
<!-- \\Symfony\\Component\\Console\\Command\\Command -->
<g id="node42" class="node"><title>\\Symfony\\Component\\Console\\Command\\Command</title>
<ellipse fill="none" stroke="black" cx="474" cy="-141" rx="205.264" ry="18"/>
<text text-anchor="middle" x="474" y="-137.3" font-family="Times New Roman,serif" font-size="14.00" fill="gray">\Symfony\Component\Console\Command\Command</text>
</g>
<!-- \\Pvra\\Console\\Commands\\CheckUpdateCommand&#45;&gt;\\Symfony\\Component\\Console\\Command\\Command -->
<g id="edge23" class="edge"><title>\\Pvra\\Console\\Commands\\CheckUpdateCommand&#45;&gt;\\Symfony\\Component\\Console\\Command\\Command</title>
<path fill="none" stroke="black" d="M1246.96,-454.581C1212.27,-454.066 1172.02,-446.872 1146,-421 1038.02,-313.64 1200.41,-187.859 1090,-83 1035.51,-31.2537 994.171,-84.9222 922,-64"/>
</g>
<!-- \\Pvra\\Console\\Commands\\DirCommand -->
<g id="node30" class="node"><title>\\Pvra\\Console\\Commands\\DirCommand</title>
<polygon fill="none" stroke="black" points="1358,-412 1274,-412 1274,-376 1358,-376 1358,-412"/>
<text text-anchor="middle" x="1316" y="-391.2" font-family="Courier,monospace" font-size="11.00">DirCommand</text>
</g>
<!-- \\Pvra\\Console\\Commands\\DirCommand&#45;&gt;\\Symfony\\Component\\Console\\Command\\Command -->
<g id="edge25" class="edge"><title>\\Pvra\\Console\\Commands\\DirCommand&#45;&gt;\\Symfony\\Component\\Console\\Command\\Command</title>
<path fill="none" stroke="black" d="M920,-64C778.169,-22.8836 604.163,-83.9459 522.096,-119.093"/>
<polygon fill="none" stroke="black" points="520.328,-116.045 512.552,-123.242 523.118,-122.465 520.328,-116.045"/>
<path fill="none" stroke="black" d="M1273.91,-400.948C1235.74,-404.881 1179.85,-403.814 1146,-372 1050.67,-282.396 1186.08,-171.798 1090,-83 1034.81,-31.9998 994.171,-84.9222 922,-64"/>
</g>
<!-- \\Pvra\\Console\\Commands\\PvraBaseCommand&#45;&gt;\\Symfony\\Component\\Console\\Command\\Command -->
<g id="edge43" class="edge"><title>\\Pvra\\Console\\Commands\\PvraBaseCommand&#45;&gt;\\Symfony\\Component\\Console\\Command\\Command</title>
<path fill="none" stroke="black" d="M861.61,-509.137C826.054,-510.21 781.876,-505.259 752,-480 668.582,-409.473 750.314,-328.598 680,-245 645.657,-204.169 591.276,-177.621 547.151,-161.574"/>
<polygon fill="none" stroke="black" points="548.211,-158.236 537.616,-158.209 545.882,-164.837 548.211,-158.236"/>
</g>
<!-- \\Pvra\\Console\\Application -->
<g id="node32" class="node"><title>\\Pvra\\Console\\Application</title>
<polygon fill="none" stroke="black" points="1361.5,-358 1270.5,-358 1270.5,-322 1361.5,-322 1361.5,-358"/>
<text text-anchor="middle" x="1316" y="-337.2" font-family="Courier,monospace" font-size="11.00">Application</text>
</g>
<!-- \\Symfony\\Component\\Console\\Application -->
<g id="node49" class="node"><title>\\Symfony\\Component\\Console\\Application</title>
<ellipse fill="none" stroke="black" cx="921" cy="-18" rx="168.97" ry="18"/>
<text text-anchor="middle" x="921" y="-14.3" font-family="Times New Roman,serif" font-size="14.00" fill="gray">\Symfony\Component\Console\Application</text>
</g>
<!-- \\Pvra\\Console\\Application&#45;&gt;\\Symfony\\Component\\Console\\Application -->
<g id="edge35" class="edge"><title>\\Pvra\\Console\\Application&#45;&gt;\\Symfony\\Component\\Console\\Application</title>
<path fill="none" stroke="black" d="M1306.69,-321.674C1282.04,-269.549 1203.84,-119.732 1090,-50 1078.9,-43.2029 1066.68,-37.7952 1054.05,-33.5004"/>
<polygon fill="none" stroke="black" points="1054.9,-30.1011 1044.31,-30.4285 1052.8,-36.7765 1054.9,-30.1011"/>
</g>
</g>
</svg>
